  0
SECTION
  2
HEADER
  9
$ACADVER
  1
AC1012
  9
$DWGCODEPAGE
  3
ansi_1252
  9
$INSBASE
 10
0.0
 20
0.0
 30
0.0
  9
$EXTMIN
 10
1.000000000000000E+20
 20
1.000000000000000E+20
 30
1.000000000000000E+20
  9
$EXTMAX
 10
-1.000000000000000E+20
 20
-1.000000000000000E+20
 30
-1.000000000000000E+20
  9
$LIMMIN
 10
0.0
 20
0.0
  9
$LIMMAX
 10
420.0
 20
297.0
  9
$ORTHOMODE
 70
     0
  9
$REGENMODE
 70
     1
  9
$FILLMODE
 70
     1
  9
$QTEXTMODE
 70
     0
  9
$MIRRTEXT
 70
     1
  9
$DRAGMODE
 70
     2
  9
$LTSCALE
 40
12.7
  9
$OSMODE
 70
    23
  9
$ATTMODE
 70
     1
  9
$TEXTSIZE
 40
3.5
  9
$TRACEWID
 40
1.0
  9
$TEXTSTYLE
  7
ONSHAPE-STANDARD
  9
$CLAYER
  8
0
  9
$CELTYPE
  6
BYLAYER
  9
$CECOLOR
 62
   256
  9
$CELTSCALE
 40
1.0
  9
$DELOBJ
 70
     1
  9
$DISPSILH
 70
     0
  9
$DIMSCALE
 40
1.0
  9
$DIMASZ
 40
2.5
  9
$DIMEXO
 40
0.625
  9
$DIMDLI
 40
3.75
  9
$DIMRND
 40
0.0
  9
$DIMDLE
 40
0.0
  9
$DIMEXE
 40
1.25
  9
$DIMTP
 40
0.0
  9
$DIMTM
 40
0.0
  9
$DIMTXT
 40
3.5
  9
$DIMCEN
 40
2.5
  9
$DIMTSZ
 40
0.0
  9
$DIMTOL
 70
     0
  9
$DIMLIM
 70
     0
  9
$DIMTIH
 70
     0
  9
$DIMTOH
 70
     0
  9
$DIMSE1
 70
     0
  9
$DIMSE2
 70
     0
  9
$DIMTAD
 70
     1
  9
$DIMZIN
 70
     8
  9
$DIMBLK
  1

  9
$DIMASO
 70
     1
  9
$DIMSHO
 70
     1
  9
$DIMPOST
  1

  9
$DIMAPOST
  1

  9
$DIMALT
 70
     0
  9
$DIMALTD
 70
     3
  9
$DIMALTF
 40
0.0393700787401575
  9
$DIMLFAC
 40
1.0
  9
$DIMTOFL
 70
     1
  9
$DIMTVP
 40
0.0
  9
$DIMTIX
 70
     0
  9
$DIMSOXD
 70
     0
  9
$DIMSAH
 70
     0
  9
$DIMBLK1
  1

  9
$DIMBLK2
  1

  9
$DIMSTYLE
  2
ONSHAPE-ISO-25
  9
$DIMCLRD
 70
     0
  9
$DIMCLRE
 70
     0
  9
$DIMCLRT
 70
     0
  9
$DIMTFAC
 40
1.0
  9
$DIMGAP
 40
0.625
  9
$DIMJUST
 70
     0
  9
$DIMSD1
 70
     0
  9
$DIMSD2
 70
     0
  9
$DIMTOLJ
 70
     0
  9
$DIMTZIN
 70
     8
  9
$DIMALTZ
 70
     8
  9
$DIMALTTZ
 70
     0
  9
$DIMFIT
 70
     3
  9
$DIMUPT
 70
     1
  9
$DIMUNIT
 70
     2
  9
$DIMDEC
 70
     2
  9
$DIMTDEC
 70
     2
  9
$DIMALTU
 70
     2
  9
$DIMALTTD
 70
     3
  9
$DIMTXSTY
  7
ONSHAPE-STANDARD-DIMENSION
  9
$DIMAUNIT
 70
     0
  9
$LUNITS
 70
     2
  9
$LUPREC
 70
     4
  9
$SKETCHINC
 40
1.0
  9
$FILLETRAD
 40
10.0
  9
$AUNITS
 70
     0
  9
$AUPREC
 70
     0
  9
$MENU
  1
.
  9
$ELEVATION
 40
0.0
  9
$PELEVATION
 40
0.0
  9
$THICKNESS
 40
0.0
  9
$LIMCHECK
 70
     0
  9
$CHAMFERA
 40
0.0
  9
$CHAMFERB
 40
0.0
  9
$CHAMFERC
 40
0.0
  9
$CHAMFERD
 40
0.0
  9
$SKPOLY
 70
     0
  9
$TDCREATE
 40
2458213.893749989
  9
$TDUPDATE
 40
2458213.893749989
  9
$TDINDWG
 40
0.0
  9
$TDUSRTIMER
 40
0.0
  9
$USRTIMER
 70
     1
  9
$ANGBASE
 50
0.0
  9
$ANGDIR
 70
     0
  9
$PDMODE
 70
     0
  9
$PDSIZE
 40
0.0
  9
$PLINEWID
 40
0.0
  9
$COORDS
 70
     1
  9
$SPLFRAME
 70
     0
  9
$SPLINETYPE
 70
     6
  9
$SPLINESEGS
 70
     8
  9
$ATTDIA
 70
     0
  9
$ATTREQ
 70
     1
  9
$HANDLING
 70
     1
  9
$HANDSEED
  5
29B
  9
$SURFTAB1
 70
     6
  9
$SURFTAB2
 70
     6
  9
$SURFTYPE
 70
     6
  9
$SURFU
 70
     6
  9
$SURFV
 70
     6
  9
$UCSNAME
  2

  9
$UCSORG
 10
0.0
 20
0.0
 30
0.0
  9
$UCSXDIR
 10
1.0
 20
0.0
 30
0.0
  9
$UCSYDIR
 10
0.0
 20
1.0
 30
0.0
  9
$PUCSNAME
  2

  9
$PUCSORG
 10
0.0
 20
0.0
 30
0.0
  9
$PUCSXDIR
 10
1.0
 20
0.0
 30
0.0
  9
$PUCSYDIR
 10
0.0
 20
1.0
 30
0.0
  9
$USERI1
 70
     0
  9
$USERI2
 70
     0
  9
$USERI3
 70
     0
  9
$USERI4
 70
     0
  9
$USERI5
 70
     0
  9
$USERR1
 40
0.0
  9
$USERR2
 40
0.0
  9
$USERR3
 40
0.0
  9
$USERR4
 40
0.0
  9
$USERR5
 40
0.0
  9
$WORLDVIEW
 70
     1
  9
$SHADEDGE
 70
     3
  9
$SHADEDIF
 70
    70
  9
$TILEMODE
 70
     1
  9
$MAXACTVP
 70
    64
  9
$PINSBASE
 10
0.0
 20
0.0
 30
0.0
  9
$PLIMCHECK
 70
     0
  9
$PEXTMIN
 10
1.000000000000000E+20
 20
1.000000000000000E+20
 30
1.000000000000000E+20
  9
$PEXTMAX
 10
-1.000000000000000E+20
 20
-1.000000000000000E+20
 30
-1.000000000000000E+20
  9
$PLIMMIN
 10
0.0
 20
0.0
  9
$PLIMMAX
 10
420.0
 20
297.0
  9
$UNITMODE
 70
     0
  9
$VISRETAIN
 70
     1
  9
$PLINEGEN
 70
     0
  9
$PSLTSCALE
 70
     1
  9
$TREEDEPTH
 70
  3020
  9
$PICKSTYLE
 70
     1
  9
$CMLSTYLE
  2
STANDARD
  9
$CMLJUST
 70
     0
  9
$CMLSCALE
 40
20.0
  9
$SAVEIMAGES
 70
     1
  0
ENDSEC
  0
SECTION
  2
CLASSES
  0
CLASS
  1
ACDBDICTIONARYWDFLT
  2
AcDbDictionaryWithDefault
  3
ObjectDBX Classes
 90
    32768
280
     0
281
     0
  0
CLASS
  1
VISUALSTYLE
  2
AcDbVisualStyle
  3
ObjectDBX Classes
 90
     4095
280
     0
281
     0
  0
CLASS
  1
MATERIAL
  2
AcDbMaterial
  3
ObjectDBX Classes
 90
     1153
280
     0
281
     0
  0
CLASS
  1
SCALE
  2
AcDbScale
  3
ObjectDBX Classes
 90
     1153
280
     0
281
     0
  0
CLASS
  1
SUN
  2
AcDbSun
  3
SCENEOE
 90
     1153
280
     0
281
     0
  0
CLASS
  1
TABLESTYLE
  2
AcDbTableStyle
  3
ObjectDBX Classes
 90
     4095
280
     0
281
     0
  0
CLASS
  1
DICTIONARYVAR
  2
AcDbDictionaryVar
  3
ObjectDBX Classes
 90
        0
280
     0
281
     0
  0
CLASS
  1
XRECORD
  2
AcDbXrecord
  3
ObjectDBX Classes
 90
    32768
280
     0
281
     0
  0
CLASS
  1
LWPOLYLINE
  2
AcDbPolyline
  3
ObjectDBX Classes
 90
    32768
280
     0
281
     1
  0
CLASS
  1
HATCH
  2
AcDbHatch
  3
ObjectDBX Classes
 90
    32768
280
     0
281
     1
  0
CLASS
  1
ACDBPLACEHOLDER
  2
AcDbPlaceHolder
  3
ObjectDBX Classes
 90
        0
280
     0
281
     0
  0
CLASS
  1
LAYOUT
  2
AcDbLayout
  3
ObjectDBX Classes
 90
        0
280
     0
281
     0
  0
ENDSEC
  0
SECTION
  2
TABLES
  0
TABLE
  2
VPORT
  5
8
330
0
100
AcDbSymbolTable
 70
     1
  0
VPORT
  5
29
330
8
100
AcDbSymbolTableRecord
100
AcDbViewportTableRecord
  2
*ACTIVE
 70
     0
 10
0.0
 20
0.0
 11
1.0
 21
1.0
 12
471.0686362925414
 22
657.4005834950617
 13
0.0
 23
0.0
 14
10.0
 24
10.0
 15
10.0
 25
10.0
 16
0.0
 26
0.0
 36
1.0
 17
0.0
 27
0.0
 37
0.0
 40
996.9083242244627
 41
0.8792576626110743
 42
50.0
 43
0.0
 44
0.0
 50
0.0
 51
0.0
 71
     0
 72
   100
 73
     1
 74
     3
 75
     0
 76
     0
 77
     0
 78
     0
  0
ENDTAB
  0
TABLE
  2
LTYPE
  5
5
330
0
100
AcDbSymbolTable
 70
     1
  0
LTYPE
  5
14
330
5
100
AcDbSymbolTableRecord
100
AcDbLinetypeTableRecord
  2
BYBLOCK
 70
     0
  3

 72
    65
 73
     0
 40
0.0
  0
LTYPE
  5
15
330
5
100
AcDbSymbolTableRecord
100
AcDbLinetypeTableRecord
  2
BYLAYER
 70
     0
  3

 72
    65
 73
     0
 40
0.0
  0
LTYPE
  5
16
330
5
100
AcDbSymbolTableRecord
100
AcDbLinetypeTableRecord
  2
CONTINUOUS
 70
     0
  3
Solid line
 72
    65
 73
     0
 40
0.0
  0
ENDTAB
  0
TABLE
  2
LAYER
  5
2
330
0
100
AcDbSymbolTable
 70
     4
  0
LAYER
  5
10
330
2
100
AcDbSymbolTableRecord
100
AcDbLayerTableRecord
  2
0
 70
     0
 62
     7
  6
CONTINUOUS
  0
LAYER
  5
6E
330
2
100
AcDbSymbolTableRecord
100
AcDbLayerTableRecord
  2
DEFPOINTS
 70
     0
 62
     7
  6
CONTINUOUS
  0
LAYER
  5
73
330
2
100
AcDbSymbolTableRecord
100
AcDbLayerTableRecord
  2
ANNOTATION_TEXT
 70
     0
 62
     7
  6
CONTINUOUS
  0
LAYER
  5
7A
330
2
100
AcDbSymbolTableRecord
100
AcDbLayerTableRecord
  2
VISIBLE
 70
     0
 62
     7
  6
CONTINUOUS
  0
ENDTAB
  0
TABLE
  2
STYLE
  5
3
330
0
100
AcDbSymbolTable
 70
     3
  0
STYLE
  5
11
330
3
100
AcDbSymbolTableRecord
100
AcDbTextStyleTableRecord
  2
STANDARD
 70
     0
 40
0.0
 41
1.0
 50
0.0
 71
     0
 42
3.5
  3
txt
  4

  0
STYLE
  5
6F
330
3
100
AcDbSymbolTableRecord
100
AcDbTextStyleTableRecord
  2
ONSHAPE-STANDARD
 70
     0
 40
0.0
 41
1.0
 50
0.0
 71
     0
 42
3.5
  3
NotoSans-Regular.ttf
  4

1001
ACAD
1000
Noto Sans
1071
        0
  0
STYLE
  5
71
330
3
100
AcDbSymbolTableRecord
100
AcDbTextStyleTableRecord
  2
ONSHAPE-STANDARD-DIMENSION
 70
     0
 40
0.0
 41
1.0
 50
0.0
 71
     0
 42
3.5
  3

  4

1001
ACAD
1000
Noto Sans
1071
        0
  0
ENDTAB
  0
TABLE
  2
VIEW
  5
6
330
0
100
AcDbSymbolTable
 70
     0
  0
ENDTAB
  0
TABLE
  2
UCS
  5
7
330
0
100
AcDbSymbolTable
 70
     0
  0
ENDTAB
  0
TABLE
  2
APPID
  5
9
330
0
100
AcDbSymbolTable
 70
     1
  0
APPID
  5
12
330
9
100
AcDbSymbolTableRecord
100
AcDbRegAppTableRecord
  2
ACAD
 70
     0
  0
ENDTAB
  0
TABLE
  2
DIMSTYLE
  5
A
330
0
100
AcDbSymbolTable
 70
     2
  0
DIMSTYLE
105
27
330
A
100
AcDbSymbolTableRecord
100
AcDbDimStyleTableRecord
  2
ISO-25
 70
     0
  3

  4

  5

  6

  7

 40
1.0
 41
2.5
 42
0.625
 43
3.75
 44
1.25
 45
0.0
 46
0.0
 47
0.0
 48
0.0
140
2.5
141
2.5
142
0.0
143
0.03937007874016
144
1.0
145
0.0
146
1.0
147
0.625
 71
     0
 72
     0
 73
     0
 74
     0
 75
     0
 76
     0
 77
     1
 78
     8
170
     0
171
     3
172
     1
173
     0
174
     0
175
     0
176
     0
177
     0
178
     0
270
     2
271
     2
272
     2
273
     2
274
     3
340
11
275
     0
280
     0
281
     0
282
     0
283
     0
284
     8
285
     0
286
     0
287
     3
288
     0
  0
DIMSTYLE
105
70
330
A
100
AcDbSymbolTableRecord
100
AcDbDimStyleTableRecord
  2
ONSHAPE-ISO-25
 70
     0
  3

  4

  5

  6

  7

 40
1.0
 41
2.5
 42
0.625
 43
3.75
 44
1.25
 45
0.0
 46
0.0
 47
0.0
 48
0.0
140
3.5
141
2.5
142
0.0
143
0.0393700787401575
144
1.0
145
0.0
146
1.0
147
0.625
 71
     0
 72
     0
 73
     0
 74
     0
 75
     0
 76
     0
 77
     1
 78
     8
170
     0
171
     3
172
     1
173
     0
174
     0
175
     0
176
     0
177
     0
178
     0
179
     1
270
     2
271
     2
272
     2
273
     2
274
     3
340
71
275
     0
280
     0
281
     0
282
     0
283
     0
284
     8
285
     8
286
     0
287
     3
288
     1
  0
ENDTAB
  0
TABLE
  2
BLOCK_RECORD
  5
1
330
0
100
AcDbSymbolTable
 70
     1
  0
BLOCK_RECORD
  5
1F
330
1
100
AcDbSymbolTableRecord
100
AcDbBlockTableRecord
  2
*MODEL_SPACE
  0
BLOCK_RECORD
  5
1B
330
1
100
AcDbSymbolTableRecord
100
AcDbBlockTableRecord
  2
*PAPER_SPACE
  0
ENDTAB
  0
ENDSEC
  0
SECTION
  2
BLOCKS
  0
BLOCK
  5
20
330
1F
100
AcDbEntity
  8
0
100
AcDbBlockBegin
  2
*MODEL_SPACE
 70
     0
 10
0.0
 20
0.0
 30
0.0
  3
*MODEL_SPACE
  1

  0
ENDBLK
  5
21
330
1F
100
AcDbEntity
  8
0
100
AcDbBlockEnd
  0
BLOCK
  5
1C
330
1B
100
AcDbEntity
 67
     1
  8
0
100
AcDbBlockBegin
  2
*PAPER_SPACE
 70
     0
 10
0.0
 20
0.0
 30
0.0
  3
*PAPER_SPACE
  1

  0
ENDBLK
  5
1D
330
1B
100
AcDbEntity
 67
     1
  8
0
100
AcDbBlockEnd
  0
ENDSEC
  0
SECTION
  2
ENTITIES
  0
MTEXT
  5
72
330
1F
100
AcDbEntity
  8
ANNOTATION_TEXT
 60
     1
100
AcDbMText
 10
296.193965120546
 20
697.5915103468813
 30
0.0
 40
3.5
 41
0.0
 71
     2
 72
     1
  1

  7
ONSHAPE-STANDARD
1001
ACAD
1000
ACAD_MTEXT_DEFINED_HEIGHT_BEGIN
1070
    46
1040
3.5
1000
ACAD_MTEXT_DEFINED_HEIGHT_END
  0
MTEXT
  5
76
330
1F
100
AcDbEntity
  8
ANNOTATION_TEXT
 60
     1
100
AcDbMText
 10
668.2253626148266
 20
816.0234345854847
 30
0.0
 40
3.5
 41
0.0
 71
     2
 72
     1
  1

  7
ONSHAPE-STANDARD
1001
ACAD
1000
ACAD_MTEXT_DEFINED_HEIGHT_BEGIN
1070
    46
1040
3.5
1000
ACAD_MTEXT_DEFINED_HEIGHT_END
  0
MTEXT
  5
77
330
1F
100
AcDbEntity
  8
ANNOTATION_TEXT
 60
     1
100
AcDbMText
 10
748.3447554077984
 20
406.4023135738499
 30
0.0
 40
3.5
 41
0.0
 71
     2
 72
     1
  1

  7
ONSHAPE-STANDARD
1001
ACAD
1000
ACAD_MTEXT_DEFINED_HEIGHT_BEGIN
1070
    46
1040
3.5
1000
ACAD_MTEXT_DEFINED_HEIGHT_END
  0
MTEXT
  5
78
330
1F
100
AcDbEntity
  8
ANNOTATION_TEXT
 60
     1
100
AcDbMText
 10
691.7073008004677
 20
151.7300324046388
 30
0.0
 40
3.5
 41
0.0
 71
     2
 72
     1
  1

  7
ONSHAPE-STANDARD
1001
ACAD
1000
ACAD_MTEXT_DEFINED_HEIGHT_BEGIN
1070
    46
1040
3.5
1000
ACAD_MTEXT_DEFINED_HEIGHT_END
  0
MTEXT
  5
79
330
1F
100
AcDbEntity
  8
ANNOTATION_TEXT
 60
     1
100
AcDbMText
 10
267.5579325281042
 20
369.946439208072
 30
0.0
 40
3.5
 41
0.0
 71
     2
 72
     1
  1

  7
ONSHAPE-STANDARD
1001
ACAD
1000
ACAD_MTEXT_DEFINED_HEIGHT_BEGIN
1070
    46
1040
3.5
1000
ACAD_MTEXT_DEFINED_HEIGHT_END
  0
ARC
  5
7B
330
1F
100
AcDbEntity
  8
VISIBLE
100
AcDbCircle
 10
251.0017909501647
 20
1014.820051881963
 30
0.0
 40
5.08
100
AcDbArc
 50
180.0
 51
90.0
  0
LINE
  5
7C
330
1F
100
AcDbEntity
  8
VISIBLE
100
AcDbLine
 10
251.0017909501647
 20
1026.758051881963
 30
0.0
 11
283.8693909501647
 21
1026.758051881963
 31
0.0
  0
LINE
  5
7D
330
1F
100
AcDbEntity
  8
VISIBLE
100
AcDbLine
 10
283.8693909501647
 20
1026.758051881963
 30
0.0
 11
283.8693909501647
 21
1019.900051881963
 31
0.0
  0
ARC
  5
7E
330
1F
100
AcDbEntity
  8
VISIBLE
100
AcDbCircle
 10
283.8693909501647
 20
1014.820051881963
 30
0.0
 40
5.08
100
AcDbArc
 50
90.0
 51
0.0
  0
LINE
  5
7F
330
1F
100
AcDbEntity
  8
VISIBLE
100
AcDbLine
 10
288.9493909501647
 20
1014.820051881963
 30
0.0
 11
297.0011909501642
 21
1014.820051881963
 31
0.0
  0
LINE
  5
80
330
1F
100
AcDbEntity
  8
VISIBLE
100
AcDbLine
 10
297.0011909501642
 20
1014.820051881963
 30
0.0
 11
297.0011909501642
 21
989.9280518819633
 31
0.0
  0
LINE
  5
81
330
1F
100
AcDbEntity
  8
VISIBLE
100
AcDbLine
 10
297.0011909501642
 20
989.9280518819633
 30
0.0
 11
284.4281909501647
 21
989.9280518819633
 31
0.0
  0
ARC
  5
82
330
1F
100
AcDbEntity
  8
VISIBLE
100
AcDbCircle
 10
-284.4281909501642
 20
986.6260518819632
 30
0.0000000000000604
 40
3.302
210
0.0
220
6.123233995736766E-17
230
-1.0
100
AcDbArc
 50
270.0
 51
90.00000000000789
  0
LINE
  5
83
330
1F
100
AcDbEntity
  8
VISIBLE
100
AcDbLine
 10
284.4281909501642
 20
983.3240518819632
 30
0.0
 11
297.0011909501642
 21
983.3240518819632
 31
0.0
  0
LINE
  5
84
330
1F
100
AcDbEntity
  8
VISIBLE
100
AcDbLine
 10
297.0011909501642
 20
983.3240518819632
 30
0.0
 11
297.0011909501647
 21
976.7200518819632
 31
0.0
  0
ARC
  5
85
330
1F
100
AcDbEntity
  8
VISIBLE
100
AcDbCircle
 10
-300.3031909501647
 20
976.7200518819632
 30
0.0000000000000597
 40
3.302
210
0.0
220
6.123233995736766E-17
230
-1.0
100
AcDbArc
 50
180.0
 51
0.0
  0
LINE
  5
86
330
1F
100
AcDbEntity
  8
VISIBLE
100
AcDbLine
 10
303.6051909501647
 20
983.3240518819632
 30
0.0
 11
303.6051909501647
 21
976.7200518819632
 31
0.0
  0
LINE
  5
87
330
1F
100
AcDbEntity
  8
VISIBLE
100
AcDbLine
 10
316.1781909501647
 20
983.3240518819632
 30
0.0
 11
303.6051909501647
 21
983.3240518819632
 31
0.0
  0
ARC
  5
88
330
1F
100
AcDbEntity
  8
VISIBLE
100
AcDbCircle
 10
-316.1781909501647
 20
986.6260518819632
 30
0.0000000000000604
 40
3.302
210
0.0
220
6.123233995736766E-17
230
-1.0
100
AcDbArc
 50
90.0
 51
270.0
  0
LINE
  5
89
330
1F
100
AcDbEntity
  8
VISIBLE
100
AcDbLine
 10
303.6051909501647
 20
989.9280518819633
 30
0.0
 11
316.1781909501647
 21
989.9280518819633
 31
0.0
  0
LINE
  5
8A
330
1F
100
AcDbEntity
  8
VISIBLE
100
AcDbLine
 10
303.6051909501647
 20
1014.820051881963
 30
0.0
 11
303.6051909501647
 21
989.9280518819633
 31
0.0
  0
LINE
  5
8B
330
1F
100
AcDbEntity
  8
VISIBLE
100
AcDbLine
 10
303.6051909501647
 20
1014.820051881963
 30
0.0
 11
311.6569909501642
 21
1014.820051881963
 31
0.0
  0
ARC
  5
8C
330
1F
100
AcDbEntity
  8
VISIBLE
100
AcDbCircle
 10
316.7369909501647
 20
1014.820051881963
 30
0.0
 40
5.08
100
AcDbArc
 50
180.0
 51
90.0
  0
LINE
  5
8D
330
1F
100
AcDbEntity
  8
VISIBLE
100
AcDbLine
 10
316.7369909501647
 20
1026.758051881963
 30
0.0
 11
342.4307457624162
 21
1026.758051881963
 31
0.0
  0
LINE
  5
8E
330
1F
100
AcDbEntity
  8
VISIBLE
100
AcDbLine
 10
359.0869843902732
 20
999.0403953762238
 30
0.0
 11
353.2086986759872
 21
995.5079852837763
 31
0.0
  0
ARC
  5
8F
330
1F
100
AcDbEntity
  8
VISIBLE
100
AcDbCircle
 10
348.8544129617012
 20
992.8913852152967
 30
0.0
 40
5.08
100
AcDbArc
 50
31.00271913387203
 51
301.0027191338793
  0
LINE
  5
90
330
1F
100
AcDbEntity
  8
VISIBLE
100
AcDbLine
 10
351.4710130301813
 20
988.5370995010112
 30
0.0
 11
366.5891467591742
 21
963.3790042629157
 31
0.0
  0
ARC
  5
91
330
1F
100
AcDbEntity
  8
VISIBLE
100
AcDbCircle
 10
369.2057468276537
 20
959.0247185486297
 30
0.0
 40
5.08
100
AcDbArc
 50
121.0027191338724
 51
31.0027191338795
  0
LINE
  5
92
330
1F
100
AcDbEntity
  8
VISIBLE
100
AcDbLine
 10
373.5600325419392
 20
961.6413186171097
 30
0.0
 11
379.4383182562257
 21
965.1737287095573
 31
0.0
  0
LINE
  5
93
330
1F
100
AcDbEntity
  8
VISIBLE
100
AcDbLine
 10
379.4383182562257
 20
965.1737287095573
 30
0.0
 11
399.7896521221777
 21
931.3070620428903
 31
0.0
  0
LINE
  5
94
330
1F
100
AcDbEntity
  8
VISIBLE
100
AcDbLine
 10
399.7896521221777
 20
931.3070620428903
 30
0.0
 11
393.9113664078917
 21
927.7746519504427
 31
0.0
  0
ARC
  5
95
330
1F
100
AcDbEntity
  8
VISIBLE
100
AcDbCircle
 10
389.5570806936062
 20
925.1580518819633
 30
0.0
 40
5.08
100
AcDbArc
 50
31.00271913387378
 51
301.0027191338723
  0
LINE
  5
96
330
1F
100
AcDbEntity
  8
VISIBLE
100
AcDbLine
 10
392.1736807620858
 20
920.8037661676772
 30
0.0
 11
398.0319575820707
 21
911.0550042629158
 31
0.0
  0
LINE
  5
97
330
1F
100
AcDbEntity
  8
VISIBLE
100
AcDbLine
 10
398.0319575820707
 20
911.0550042629158
 30
0.0
 11
376.6959575820703
 21
898.2336639273657
 31
0.0
  0
LINE
  5
98
330
1F
100
AcDbEntity
  8
VISIBLE
100
AcDbLine
 10
376.6959575820703
 20
898.2336639273657
 30
0.0
 11
370.2198724125837
 21
909.0105210702233
 31
0.0
  0
ARC
  5
99
330
1F
100
AcDbEntity
  8
VISIBLE
100
AcDbCircle
 10
367.3895866982977
 20
907.3097310257112
 30
0.0
 40
3.302000000000325
100
AcDbArc
 50
31.00271913387415
 51
211.0027191338742
  0
LINE
  5
9A
330
1F
100
AcDbEntity
  8
VISIBLE
100
AcDbLine
 10
364.5593009840117
 20
905.6089409811992
 30
0.0
 11
371.0353861534992
 21
894.8320838383422
 31
0.0
  0
LINE
  5
9B
330
1F
100
AcDbEntity
  8
VISIBLE
100
AcDbLine
 10
371.0353861534992
 20
894.8320838383422
 30
0.0
 11
365.3748147249277
 21
891.4305037493187
 31
0.0
  0
ARC
  5
9C
330
1F
100
AcDbEntity
  8
VISIBLE
100
AcDbCircle
 10
367.0756047694397
 20
888.6002180350332
 30
0.0
 40
3.302
100
AcDbArc
 50
121.0027191338799
 51
301.0027191338684
  0
LINE
  5
9D
330
1F
100
AcDbEntity
  8
VISIBLE
100
AcDbLine
 10
374.4369662425232
 20
889.1715124097702
 30
0.0
 11
368.7763948139512
 21
885.7699323207472
 31
0.0
  0
LINE
  5
9E
330
1F
100
AcDbEntity
  8
VISIBLE
100
AcDbLine
 10
380.9130514120097
 20
878.3946552669132
 30
0.0
 11
374.4369662425232
 21
889.1715124097702
 31
0.0
  0
ARC
  5
9F
330
1F
100
AcDbEntity
  8
VISIBLE
100
AcDbCircle
 10
383.7433371262952
 20
880.0954453114257
 30
0.0
 40
3.302000000000355
100
AcDbArc
 50
211.0027191338878
 51
31.00271913387364
  0
LINE
  5
A0
330
1F
100
AcDbEntity
  8
VISIBLE
100
AcDbLine
 10
380.0975376710942
 20
892.5730924987943
 30
0.0
 11
386.5736228405808
 21
881.7962353559373
 31
0.0
  0
LINE
  5
A1
330
1F
100
AcDbEntity
  8
VISIBLE
100
AcDbLine
 10
401.4335376710942
 20
905.3944328343442
 30
0.0
 11
380.0975376710942
 21
892.5730924987943
 31
0.0
  0
LINE
  5
A2
330
1F
100
AcDbEntity
  8
VISIBLE
100
AcDbLine
 10
401.4335376710942
 20
905.3944328343442
 30
0.0
 11
407.2918144910787
 21
895.6456709295821
 31
0.0
  0
ARC
  5
A3
330
1F
100
AcDbEntity
  8
VISIBLE
100
AcDbCircle
 10
409.9084145595582
 20
891.2913852152967
 30
0.0
 40
5.08
100
AcDbArc
 50
121.0027191338747
 51
31.00271913387203
  0
LINE
  5
A4
330
1F
100
AcDbEntity
  8
VISIBLE
100
AcDbLine
 10
414.2627002738442
 20
893.9079852837763
 30
0.0
 11
420.1409859881302
 21
897.4403953762237
 31
0.0
  0
LINE
  5
A5
330
1F
100
AcDbEntity
  8
VISIBLE
100
AcDbLine
 10
420.1409859881302
 20
897.4403953762237
 30
0.0
 11
440.4923198540822
 21
863.5737287095573
 31
0.0
  0
LINE
  5
A6
330
1F
100
AcDbEntity
  8
VISIBLE
100
AcDbLine
 10
440.4923198540822
 20
863.5737287095573
 30
0.0
 11
434.6140341397967
 21
860.0413186171095
 31
0.0
  0
ARC
  5
A7
330
1F
100
AcDbEntity
  8
VISIBLE
100
AcDbCircle
 10
430.2597484255107
 20
857.4247185486298
 30
0.0
 40
5.08
100
AcDbArc
 50
31.00271913387236
 51
301.0027191338735
  0
LINE
  5
A8
330
1F
100
AcDbEntity
  8
VISIBLE
100
AcDbLine
 10
432.8763484939902
 20
853.0704328343443
 30
0.0
 11
447.9944822229832
 21
827.9123375962488
 31
0.0
  0
ARC
  5
A9
330
1F
100
AcDbEntity
  8
VISIBLE
100
AcDbCircle
 10
450.6110822914632
 20
823.5580518819633
 30
0.0
 40
5.08
100
AcDbArc
 50
121.0027191338793
 51
31.00271913387378
  0
LINE
  5
AA
330
1F
100
AcDbEntity
  8
VISIBLE
100
AcDbLine
 10
454.9653680057487
 20
826.1746519504427
 30
0.0
 11
460.8436537200348
 21
829.7070620428905
 31
0.0
  0
LINE
  5
AB
330
1F
100
AcDbEntity
  8
VISIBLE
100
AcDbLine
 10
460.8436537200348
 20
829.7070620428905
 30
0.0
 11
481.1949875859867
 21
795.8403953762238
 31
0.0
  0
LINE
  5
AC
330
1F
100
AcDbEntity
  8
VISIBLE
100
AcDbLine
 10
481.1949875859867
 20
795.8403953762238
 30
0.0
 11
475.3167018717012
 21
792.307985283776
 31
0.0
  0
ARC
  5
AD
330
1F
100
AcDbEntity
  8
VISIBLE
100
AcDbCircle
 10
470.9624161574152
 20
789.6913852152966
 30
0.0
 40
5.08
100
AcDbArc
 50
31.0027191338706
 51
301.0027191338723
  0
LINE
  5
AE
330
1F
100
AcDbEntity
  8
VISIBLE
100
AcDbLine
 10
473.5790162258947
 20
785.3370995010107
 30
0.0
 11
479.4372930458798
 21
775.588337596249
 31
0.0
  0
LINE
  5
AF
330
1F
100
AcDbEntity
  8
VISIBLE
100
AcDbLine
 10
479.4372930458798
 20
775.588337596249
 30
0.0
 11
458.1012930458797
 21
762.7669972606991
 31
0.0
  0
LINE
  5
B0
330
1F
100
AcDbEntity
  8
VISIBLE
100
AcDbLine
 10
458.1012930458797
 20
762.7669972606991
 30
0.0
 11
451.6252078763927
 21
773.5438544035561
 31
0.0
  0
ARC
  5
B1
330
1F
100
AcDbEntity
  8
VISIBLE
100
AcDbCircle
 10
448.7949221621067
 20
771.8430643590443
 30
0.0
 40
3.30200000000006
100
AcDbArc
 50
31.00271913387229
 51
211.0027191338745
  0
LINE
  5
B2
330
1F
100
AcDbEntity
  8
VISIBLE
100
AcDbLine
 10
445.9646364478212
 20
770.1422743145326
 30
0.0
 11
452.4407216173082
 21
759.3654171716754
 31
0.0
  0
LINE
  5
B3
330
1F
100
AcDbEntity
  8
VISIBLE
100
AcDbLine
 10
452.4407216173082
 20
759.3654171716754
 30
0.0
 11
446.7801501887367
 21
755.963837082652
 31
0.0
  0
ARC
  5
B4
330
1F
100
AcDbEntity
  8
VISIBLE
100
AcDbCircle
 10
448.4809402332488
 20
753.1335513683663
 30
0.0
 40
3.302000000000055
100
AcDbArc
 50
121.0027191338772
 51
301.0027191338692
  0
LINE
  5
B5
330
1F
100
AcDbEntity
  8
VISIBLE
100
AcDbLine
 10
455.8423017063317
 20
753.7048457431039
 30
0.0
 11
450.1817302777602
 21
750.3032656540806
 31
0.0
  0
LINE
  5
B6
330
1F
100
AcDbEntity
  8
VISIBLE
100
AcDbLine
 10
462.3183868758177
 20
742.9279886002464
 30
0.0
 11
455.8423017063317
 21
753.7048457431039
 31
0.0
  0
ARC
  5
B7
330
1F
100
AcDbEntity
  8
VISIBLE
100
AcDbCircle
 10
465.1486725901042
 20
744.6287786447585
 30
0.0
 40
3.30200000000084
100
AcDbArc
 50
211.0027191338735
 51
31.00271913387346
  0
LINE
  5
B8
330
1F
100
AcDbEntity
  8
VISIBLE
100
AcDbLine
 10
461.5028731349033
 20
757.1064258321275
 30
0.0
 11
467.9789583043907
 21
746.3295686892707
 31
0.0
  0
LINE
  5
B9
330
1F
100
AcDbEntity
  8
VISIBLE
100
AcDbLine
 10
482.8388731349032
 20
769.9277661676776
 30
0.0
 11
461.5028731349033
 21
757.1064258321275
 31
0.0
  0
LINE
  5
BA
330
1F
100
AcDbEntity
  8
VISIBLE
100
AcDbLine
 10
482.8388731349032
 20
769.9277661676776
 30
0.0
 11
488.6971499548882
 21
760.1790042629156
 31
0.0
  0
ARC
  5
BB
330
1F
100
AcDbEntity
  8
VISIBLE
100
AcDbCircle
 10
491.3137500233677
 20
755.8247185486299
 30
0.0
 40
5.08
100
AcDbArc
 50
121.0027191338735
 51
31.00271913387522
  0
LINE
  5
BC
330
1F
100
AcDbEntity
  8
VISIBLE
100
AcDbLine
 10
495.6680357376532
 20
758.4413186171095
 30
0.0
 11
501.5463214519391
 21
761.9737287095569
 31
0.0
  0
LINE
  5
BD
330
1F
100
AcDbEntity
  8
VISIBLE
100
AcDbLine
 10
501.5463214519391
 20
761.9737287095569
 30
0.0
 11
522.3593804713657
 21
727.3387049431878
 31
0.0
  0
LINE
  5
BE
330
1F
100
AcDbEntity
  8
VISIBLE
100
AcDbLine
 10
513.4054325447222
 20
721.9580518819632
 30
0.0
 11
522.3593804713657
 21
727.3387049431878
 31
0.0
  0
LINE
  5
BF
330
1F
100
AcDbEntity
  8
VISIBLE
100
AcDbLine
 10
513.4054325447222
 20
721.9580518819632
 30
0.0
 11
80.2997551454641
 21
721.9580518819633
 31
0.0
  0
LINE
  5
C0
330
1F
100
AcDbEntity
  8
VISIBLE
100
AcDbLine
 10
70.0285497697263
 20
726.0570309838604
 30
0.0
 11
80.2997551454641
 21
721.9580518819633
 31
0.0
  0
LINE
  5
C1
330
1F
100
AcDbEntity
  8
VISIBLE
100
AcDbLine
 10
70.0285497697263
 20
726.0570309838604
 30
0.0
 11
83.6739162505563
 21
760.249535524063
 31
0.0
  0
LINE
  5
C2
330
1F
100
AcDbEntity
  8
VISIBLE
100
AcDbLine
 10
90.04343949515845
 20
757.7076193892398
 30
0.0
 11
83.6739162505563
 21
760.249535524063
 31
0.0
  0
ARC
  5
C3
330
1F
100
AcDbEntity
  8
VISIBLE
100
AcDbCircle
 10
94.76160486153032
 20
755.8247185486299
 30
0.0
 40
5.08
100
AcDbArc
 50
158.2443040330224
 51
68.24430403302374
  0
LINE
  5
C4
330
1F
100
AcDbEntity
  8
VISIBLE
100
AcDbLine
 10
100.295385715491
 20
769.6912443938215
 30
0.0
 11
96.64450570214007
 21
760.5428839150018
 31
0.0
  0
LINE
  5
C5
330
1F
100
AcDbEntity
  8
VISIBLE
100
AcDbLine
 10
100.295385715491
 20
769.6912443938215
 30
0.0
 11
123.414396010713
 21
760.4650302748333
 31
0.0
  0
LINE
  5
C6
330
1F
100
AcDbEntity
  8
VISIBLE
100
AcDbLine
 10
123.414396010713
 20
760.4650302748333
 30
0.0
 11
118.7542164302036
 21
748.7875709930631
 31
0.0
  0
ARC
  5
C7
330
1F
100
AcDbEntity
  8
VISIBLE
100
AcDbCircle
 10
121.8210239183454
 20
747.5636854466666
 30
0.0000000000000001
 40
3.30200000000011
100
AcDbArc
 50
158.2443040330204
 51
338.2443040330225
  0
LINE
  5
C8
330
1F
100
AcDbEntity
  8
VISIBLE
100
AcDbLine
 10
124.8878314064872
 20
746.3397999002702
 30
0.0
 11
129.5480109869964
 21
758.0172591820406
 31
0.0
  0
LINE
  5
C9
330
1F
100
AcDbEntity
  8
VISIBLE
100
AcDbLine
 10
129.5480109869964
 20
758.0172591820406
 30
0.0
 11
135.6816259632799
 21
755.5694880892478
 31
0.0
  0
ARC
  5
CA
330
1F
100
AcDbEntity
  8
VISIBLE
100
AcDbCircle
 10
136.9055115096763
 20
758.6362955773894
 30
0.0
 40
3.302
100
AcDbArc
 50
248.244304033022
 51
68.24430403302206
  0
LINE
  5
CB
330
1F
100
AcDbEntity
  8
VISIBLE
100
AcDbLine
 10
131.9957820797893
 20
764.150874158324
 30
0.0
 11
138.1293970560727
 21
761.7031030655312
 31
0.0
  0
LINE
  5
CC
330
1F
100
AcDbEntity
  8
VISIBLE
100
AcDbLine
 10
136.6559616602986
 20
775.8283334400942
 30
0.0
 11
131.9957820797893
 21
764.150874158324
 31
0.0
  0
ARC
  5
CD
330
1F
100
AcDbEntity
  8
VISIBLE
100
AcDbCircle
 10
133.5891541721569
 20
777.0522189864906
 30
-0.0000000000000001
 40
3.30200000000009
100
AcDbArc
 50
338.2443040330225
 51
158.2443040330223
  0
LINE
  5
CE
330
1F
100
AcDbEntity
  8
VISIBLE
100
AcDbLine
 10
125.8621671035059
 20
766.5986452511169
 30
0.0
 11
130.5223466840152
 21
778.2761045328871
 31
0.0
  0
LINE
  5
CF
330
1F
100
AcDbEntity
  8
VISIBLE
100
AcDbLine
 10
102.7431568082838
 20
775.8248593701051
 30
0.0
 11
125.8621671035059
 21
766.5986452511169
 31
0.0
  0
LINE
  5
D0
330
1F
100
AcDbEntity
  8
VISIBLE
100
AcDbLine
 10
106.3940368216348
 20
784.9732198489248
 30
0.0
 11
102.7431568082838
 21
775.8248593701051
 31
0.0
  0
ARC
  5
D1
330
1F
100
AcDbEntity
  8
VISIBLE
100
AcDbCircle
 10
108.2769376622446
 20
789.6913852152966
 30
0.0
 40
5.08
100
AcDbArc
 50
248.2443040330224
 51
158.2443040330224
  0
LINE
  5
D2
330
1F
100
AcDbEntity
  8
VISIBLE
100
AcDbLine
 10
97.18924905127076
 20
794.1162021907297
 30
0.0
 11
103.5587722958728
 21
791.5742860559064
 31
0.0
  0
LINE
  5
D3
330
1F
100
AcDbEntity
  8
VISIBLE
100
AcDbLine
 10
97.18924905127076
 20
794.1162021907297
 30
0.0
 11
110.7045818519851
 21
827.9828688573964
 31
0.0
  0
LINE
  5
D4
330
1F
100
AcDbEntity
  8
VISIBLE
100
AcDbLine
 10
117.0741050965872
 20
825.4409527225732
 30
0.0
 11
110.7045818519851
 21
827.9828688573964
 31
0.0
  0
ARC
  5
D5
330
1F
100
AcDbEntity
  8
VISIBLE
100
AcDbCircle
 10
121.792270462959
 20
823.5580518819633
 30
0.0
 40
5.08
100
AcDbArc
 50
158.2443040330211
 51
68.24430403302374
  0
LINE
  5
D6
330
1F
100
AcDbEntity
  8
VISIBLE
100
AcDbLine
 10
133.4247024230635
 20
852.706553182258
 30
0.0
 11
123.6751713035688
 21
828.2762172483352
 31
0.0
  0
ARC
  5
D7
330
1F
100
AcDbEntity
  8
VISIBLE
100
AcDbCircle
 10
135.3076032636733
 20
857.4247185486298
 30
0.0
 40
5.08
100
AcDbArc
 50
248.2443040330229
 51
158.244304033021
  0
LINE
  5
D8
330
1F
100
AcDbEntity
  8
VISIBLE
100
AcDbLine
 10
124.2199146526995
 20
861.8495355240632
 30
0.0
 11
130.5894378973015
 21
859.3076193892398
 31
0.0
  0
LINE
  5
D9
330
1F
100
AcDbEntity
  8
VISIBLE
100
AcDbLine
 10
124.2199146526995
 20
861.8495355240632
 30
0.0
 11
137.7352474534139
 21
895.7162021907297
 31
0.0
  0
LINE
  5
DA
330
1F
100
AcDbEntity
  8
VISIBLE
100
AcDbLine
 10
144.104770698016
 20
893.1742860559062
 30
0.0
 11
137.7352474534139
 21
895.7162021907297
 31
0.0
  0
ARC
  5
DB
330
1F
100
AcDbEntity
  8
VISIBLE
100
AcDbCircle
 10
148.8229360643878
 20
891.2913852152967
 30
0.0
 40
5.08
100
AcDbArc
 50
158.2443040330266
 51
68.24430403302284
  0
LINE
  5
DC
330
1F
100
AcDbEntity
  8
VISIBLE
100
AcDbLine
 10
154.3567169183485
 20
905.1579110604882
 30
0.0
 11
150.7058369049975
 21
896.0095505816682
 31
0.0
  0
LINE
  5
DD
330
1F
100
AcDbEntity
  8
VISIBLE
100
AcDbLine
 10
177.4757272135707
 20
895.9316969414992
 30
0.0
 11
154.3567169183485
 21
905.1579110604882
 31
0.0
  0
LINE
  5
DE
330
1F
100
AcDbEntity
  8
VISIBLE
100
AcDbLine
 10
172.8155476330617
 20
884.2542376597297
 30
0.0
 11
177.4757272135707
 21
895.9316969414992
 31
0.0
  0
ARC
  5
DF
330
1F
100
AcDbEntity
  8
VISIBLE
100
AcDbCircle
 10
175.8823551212031
 20
883.0303521133337
 30
0.0000000000000001
 40
3.302
100
AcDbArc
 50
158.2443040330282
 51
338.2443040330133
  0
LINE
  5
E0
330
1F
100
AcDbEntity
  8
VISIBLE
100
AcDbLine
 10
183.6093421898539
 20
893.4839258487077
 30
0.0
 11
178.9491626093449
 21
881.8064665669367
 31
0.0
  0
LINE
  5
E1
330
1F
100
AcDbEntity
  8
VISIBLE
100
AcDbLine
 10
189.7429571661373
 20
891.0361547559143
 30
0.0
 11
183.6093421898539
 21
893.4839258487077
 31
0.0
  0
ARC
  5
E2
330
1F
100
AcDbEntity
  8
VISIBLE
100
AcDbCircle
 10
190.9668427125337
 20
894.1029622440562
 30
0.0
 40
3.302000000000055
100
AcDbArc
 50
248.2443040330242
 51
68.24430403302462
  0
LINE
  5
E3
330
1F
100
AcDbEntity
  8
VISIBLE
100
AcDbLine
 10
186.0571132826467
 20
899.6175408249902
 30
0.0
 11
192.1907282589301
 21
897.1697697321982
 31
0.0
  0
LINE
  5
E4
330
1F
100
AcDbEntity
  8
VISIBLE
100
AcDbLine
 10
190.7172928631563
 20
911.2950001067612
 30
0.0
 11
186.0571132826467
 21
899.6175408249902
 31
0.0
  0
ARC
  5
E5
330
1F
100
AcDbEntity
  8
VISIBLE
100
AcDbCircle
 10
187.6504853750147
 20
912.5188856531577
 30
-0.0000000000000001
 40
3.302
100
AcDbArc
 50
338.2443040330218
 51
158.2443040330198
  0
LINE
  5
E6
330
1F
100
AcDbEntity
  8
VISIBLE
100
AcDbLine
 10
179.9234983063639
 20
902.0653119177837
 30
0.0
 11
184.5836778868729
 21
913.7427711995542
 31
0.0
  0
LINE
  5
E7
330
1F
100
AcDbEntity
  8
VISIBLE
100
AcDbLine
 10
156.8044880111411
 20
911.2915260367712
 30
0.0
 11
179.9234983063639
 21
902.0653119177837
 31
0.0
  0
LINE
  5
E8
330
1F
100
AcDbEntity
  8
VISIBLE
100
AcDbLine
 10
160.4553680244922
 20
920.4398865155918
 30
0.0
 11
156.8044880111411
 21
911.2915260367712
 31
0.0
  0
ARC
  5
E9
330
1F
100
AcDbEntity
  8
VISIBLE
100
AcDbCircle
 10
162.3382688651021
 20
925.1580518819633
 30
0.0
 40
5.08
100
AcDbArc
 50
248.2443040330206
 51
158.2443040330224
  0
LINE
  5
EA
330
1F
100
AcDbEntity
  8
VISIBLE
100
AcDbLine
 10
151.2505802541283
 20
929.5828688573962
 30
0.0
 11
157.6201034987302
 21
927.0409527225733
 31
0.0
  0
LINE
  5
EB
330
1F
100
AcDbEntity
  8
VISIBLE
100
AcDbLine
 10
151.2505802541283
 20
929.5828688573962
 30
0.0
 11
164.7659130548426
 21
963.4495355240628
 31
0.0
  0
LINE
  5
EC
330
1F
100
AcDbEntity
  8
VISIBLE
100
AcDbLine
 10
171.1354362994447
 20
960.9076193892397
 30
0.0
 11
164.7659130548426
 21
963.4495355240628
 31
0.0
  0
ARC
  5
ED
330
1F
100
AcDbEntity
  8
VISIBLE
100
AcDbCircle
 10
175.8536016658167
 20
959.0247185486297
 30
0.0
 40
5.08
100
AcDbArc
 50
158.244304033021
 51
68.244304033026
  0
LINE
  5
EE
330
1F
100
AcDbEntity
  8
VISIBLE
100
AcDbLine
 10
187.4860336259209
 20
988.1732198489246
 30
0.0
 11
177.7365025064263
 21
963.7428839150017
 31
0.0
  0
ARC
  5
EF
330
1F
100
AcDbEntity
  8
VISIBLE
100
AcDbCircle
 10
189.3689344665307
 20
992.8913852152967
 30
0.0
 40
5.08
100
AcDbArc
 50
248.2443040330234
 51
158.244304033021
  0
LINE
  5
F0
330
1F
100
AcDbEntity
  8
VISIBLE
100
AcDbLine
 10
178.2812458555571
 20
997.3162021907298
 30
0.0
 11
184.6507691001589
 21
994.7742860559067
 31
0.0
  0
LINE
  5
F1
330
1F
100
AcDbEntity
  8
VISIBLE
100
AcDbLine
 10
178.2812458555571
 20
997.3162021907298
 30
0.0
 11
190.0307457624163
 21
1026.758051881963
 31
0.0
  0
ARC
  5
F2
330
1F
100
AcDbEntity
  8
VISIBLE
100
AcDbCircle
 10
218.1341909501645
 20
1014.820051881963
 30
0.0
 40
5.08
100
AcDbArc
 50
90.0
 51
0.0
  0
LINE
  5
F3
330
1F
100
AcDbEntity
  8
VISIBLE
100
AcDbLine
 10
223.2141909501647
 20
1014.820051881963
 30
0.0
 11
231.2659909501647
 21
1014.820051881963
 31
0.0
  0
LINE
  5
F4
330
1F
100
AcDbEntity
  8
VISIBLE
100
AcDbLine
 10
231.2659909501647
 20
1014.820051881963
 30
0.0
 11
231.2659909501642
 21
989.9280518819633
 31
0.0
  0
LINE
  5
F5
330
1F
100
AcDbEntity
  8
VISIBLE
100
AcDbLine
 10
231.2659909501642
 20
989.9280518819633
 30
0.0
 11
218.6929909501647
 21
989.9280518819633
 31
0.0
  0
ARC
  5
F6
330
1F
100
AcDbEntity
  8
VISIBLE
100
AcDbCircle
 10
218.6929909501642
 20
986.6260518819632
 30
0.0
 40
3.302
100
AcDbArc
 50
89.99999999999162
 51
270.0
  0
LINE
  5
F7
330
1F
100
AcDbEntity
  8
VISIBLE
100
AcDbLine
 10
218.6929909501642
 20
983.3240518819632
 30
0.0
 11
231.2659909501642
 21
983.3240518819632
 31
0.0
  0
LINE
  5
F8
330
1F
100
AcDbEntity
  8
VISIBLE
100
AcDbLine
 10
231.2659909501642
 20
983.3240518819632
 30
0.0
 11
231.2659909501642
 21
976.7200518819632
 31
0.0
  0
ARC
  5
F9
330
1F
100
AcDbEntity
  8
VISIBLE
100
AcDbCircle
 10
234.5679909501642
 20
976.7200518819632
 30
0.0000000000000001
 40
3.302
100
AcDbArc
 50
180.0
 51
0.0
  0
LINE
  5
FA
330
1F
100
AcDbEntity
  8
VISIBLE
100
AcDbLine
 10
237.8699909501647
 20
983.3240518819632
 30
0.0
 11
237.8699909501647
 21
976.7200518819632
 31
0.0
  0
LINE
  5
FB
330
1F
100
AcDbEntity
  8
VISIBLE
100
AcDbLine
 10
250.4429909501647
 20
983.3240518819632
 30
0.0
 11
237.8699909501647
 21
983.3240518819632
 31
0.0
  0
ARC
  5
FC
330
1F
100
AcDbEntity
  8
VISIBLE
100
AcDbCircle
 10
250.4429909501647
 20
986.6260518819632
 30
0.0
 40
3.302
100
AcDbArc
 50
270.0
 51
90.0
  0
LINE
  5
FD
330
1F
100
AcDbEntity
  8
VISIBLE
100
AcDbLine
 10
237.8699909501647
 20
989.9280518819633
 30
0.0
 11
250.4429909501647
 21
989.9280518819633
 31
0.0
  0
LINE
  5
FE
330
1F
100
AcDbEntity
  8
VISIBLE
100
AcDbLine
 10
237.8699909501647
 20
1014.820051881963
 30
0.0
 11
237.8699909501647
 21
989.9280518819633
 31
0.0
  0
LINE
  5
FF
330
1F
100
AcDbEntity
  8
VISIBLE
100
AcDbLine
 10
237.8699909501647
 20
1014.820051881963
 30
0.0
 11
245.9217909501647
 21
1014.820051881963
 31
0.0
  0
CIRCLE
  5
100
330
1F
100
AcDbEntity
  8
VISIBLE
100
AcDbCircle
 10
384.1711280463447
 20
944.9696452906243
 30
0.0
 40
3.175
  0
CIRCLE
  5
101
330
1F
100
AcDbEntity
  8
VISIBLE
100
AcDbCircle
 10
465.5764635101538
 20
809.5029786239578
 30
0.0
 40
3.175
  0
CIRCLE
  5
102
330
1F
100
AcDbEntity
  8
VISIBLE
100
AcDbCircle
 10
109.8446221595927
 20
808.6959094733008
 30
0.0
 40
3.175
  0
CIRCLE
  5
103
330
1F
100
AcDbEntity
  8
VISIBLE
100
AcDbCircle
 10
163.9059533624503
 20
944.1625761399672
 30
0.0
 40
3.175
  0
LINE
  5
104
330
1F
100
AcDbEntity
  8
VISIBLE
100
AcDbLine
 10
316.7369909501647
 20
1019.900051881963
 30
0.0
 11
316.7369909501647
 21
1026.758051881963
 31
0.0
  0
LINE
  5
105
330
1F
100
AcDbEntity
  8
VISIBLE
100
AcDbLine
 10
251.0017909501647
 20
1026.758051881963
 30
0.0
 11
251.0017909501647
 21
1019.900051881963
 31
0.0
  0
LINE
  5
106
330
1F
100
AcDbEntity
  8
VISIBLE
100
AcDbLine
 10
190.0307457624163
 20
1026.758051881963
 30
0.0
 11
218.1341909501645
 21
1026.758051881963
 31
0.0
  0
LINE
  5
107
330
1F
100
AcDbEntity
  8
VISIBLE
100
AcDbLine
 10
342.4307457624162
 20
1026.758051881963
 30
0.0
 11
359.0869843902732
 21
999.0403953762238
 31
0.0
  0
LINE
  5
108
330
1F
100
AcDbEntity
  8
VISIBLE
100
AcDbLine
 10
218.1341909501645
 20
1019.900051881963
 30
0.0
 11
218.1341909501645
 21
1026.758051881963
 31
0.0
  0
CIRCLE
  5
109
330
1F
100
AcDbEntity
  8
VISIBLE
100
AcDbCircle
 10
204.0824683562903
 20
1020.408051881963
 30
0.0
 40
3.175
  0
CIRCLE
  5
10B
330
1F
100
AcDbEntity
  8
VISIBLE
100
AcDbCircle
 10
522.1753626148266
 20
1034.309360230266
 30
0.0
 40
3.175
  0
CIRCLE
  5
10C
330
1F
100
AcDbEntity
  8
VISIBLE
100
AcDbCircle
 10
814.2753626148267
 20
1034.309360230266
 30
0.0
 40
3.175
  0
CIRCLE
  5
10D
330
1F
100
AcDbEntity
  8
VISIBLE
100
AcDbCircle
 10
814.2753626148267
 20
888.4537970549013
 30
0.0
 40
3.175
  0
CIRCLE
  5
10E
330
1F
100
AcDbEntity
  8
VISIBLE
100
AcDbCircle
 10
522.1753626148266
 20
888.4537970549015
 30
0.0
 40
3.175
  0
LINE
  5
10F
330
1F
100
AcDbEntity
  8
VISIBLE
100
AcDbLine
 10
783.2873626148266
 20
1073.948251024108
 30
0.0
 11
783.2873626148266
 21
1086.648251024107
 31
0.0
  0
ARC
  5
110
330
1F
100
AcDbEntity
  8
VISIBLE
100
AcDbCircle
 10
-780.1123626148267
 20
1086.648251024107
 30
0.0000000000000666
 40
3.175
210
0.0
220
6.123233995736766E-17
230
-1.0
100
AcDbArc
 50
0.0
 51
180.0
  0
LINE
  5
111
330
1F
100
AcDbEntity
  8
VISIBLE
100
AcDbLine
 10
776.9373626148266
 20
1086.648251024107
 30
0.0
 11
776.9373626148266
 21
1073.948251024108
 31
0.0
  0
LINE
  5
112
330
1F
100
AcDbEntity
  8
VISIBLE
100
AcDbLine
 10
776.9373626148266
 20
1073.948251024108
 30
0.0
 11
770.5873626148266
 21
1073.948251024108
 31
0.0
  0
ARC
  5
113
330
1F
100
AcDbEntity
  8
VISIBLE
100
AcDbCircle
 10
-770.5873626148266
 20
1070.773251024108
 30
0.0000000000000656
 40
3.175
210
0.0
220
6.123233995736766E-17
230
-1.0
100
AcDbArc
 50
270.0
 51
90.0
  0
LINE
  5
114
330
1F
100
AcDbEntity
  8
VISIBLE
100
AcDbLine
 10
776.9373626148266
 20
1067.598251024107
 30
0.0
 11
770.5873626148266
 21
1067.598251024108
 31
0.0
  0
LINE
  5
115
330
1F
100
AcDbEntity
  8
VISIBLE
100
AcDbLine
 10
776.9373626148266
 20
1054.898251024108
 30
0.0
 11
776.9373626148266
 21
1067.598251024107
 31
0.0
  0
ARC
  5
116
330
1F
100
AcDbEntity
  8
VISIBLE
100
AcDbCircle
 10
-780.1123626148267
 20
1054.898251024108
 30
0.0000000000000645
 40
3.175
210
0.0
220
6.123233995736766E-17
230
-1.0
100
AcDbArc
 50
180.0
 51
0.0
  0
LINE
  5
117
330
1F
100
AcDbEntity
  8
VISIBLE
100
AcDbLine
 10
783.2873626148266
 20
1067.598251024107
 30
0.0
 11
783.2873626148266
 21
1054.898251024108
 31
0.0
  0
LINE
  5
118
330
1F
100
AcDbEntity
  8
VISIBLE
100
AcDbLine
 10
808.6873626148266
 20
1067.598251024108
 30
0.0
 11
783.2873626148266
 21
1067.598251024107
 31
0.0
  0
LINE
  5
119
330
1F
100
AcDbEntity
  8
VISIBLE
100
AcDbLine
 10
808.6873626148266
 20
1057.621305627187
 30
0.0
 11
808.6873626148266
 21
1067.598251024108
 31
0.0
  0
ARC
  5
11A
330
1F
100
AcDbEntity
  8
VISIBLE
100
AcDbCircle
 10
808.6873626148266
 20
1052.541305627187
 30
0.0
 40
5.08
100
AcDbArc
 50
90.0
 51
0.0
  0
LINE
  5
11B
330
1F
100
AcDbEntity
  8
VISIBLE
100
AcDbLine
 10
813.7673626148267
 20
1052.541305627187
 30
0.0
 11
820.6253626148266
 21
1052.541305627187
 31
0.0
  0
LINE
  5
11C
330
1F
100
AcDbEntity
  8
VISIBLE
100
AcDbLine
 10
820.6253626148266
 20
1052.541305627187
 30
0.0
 11
820.6253626148266
 21
1016.077414833346
 31
0.0
  0
LINE
  5
11D
330
1F
100
AcDbEntity
  8
VISIBLE
100
AcDbLine
 10
813.7673626148267
 20
1016.077414833346
 30
0.0
 11
820.6253626148266
 21
1016.077414833346
 31
0.0
  0
ARC
  5
11E
330
1F
100
AcDbEntity
  8
VISIBLE
100
AcDbCircle
 10
808.6873626148266
 20
1016.077414833346
 30
0.0
 40
5.08
100
AcDbArc
 50
0.0000000000012822
 51
270.0
  0
LINE
  5
11F
330
1F
100
AcDbEntity
  8
VISIBLE
100
AcDbLine
 10
808.6873626148266
 20
984.6935240395045
 30
0.0
 11
808.6873626148266
 21
1010.997414833346
 31
0.0
  0
ARC
  5
120
330
1F
100
AcDbEntity
  8
VISIBLE
100
AcDbCircle
 10
808.6873626148266
 20
979.6135240395045
 30
0.0
 40
5.08
100
AcDbArc
 50
90.0
 51
0.0000000000012822
  0
LINE
  5
121
330
1F
100
AcDbEntity
  8
VISIBLE
100
AcDbLine
 10
813.7673626148267
 20
979.6135240395045
 30
0.0
 11
820.6253626148266
 21
979.6135240395045
 31
0.0
  0
LINE
  5
122
330
1F
100
AcDbEntity
  8
VISIBLE
100
AcDbLine
 10
820.6253626148266
 20
979.6135240395045
 30
0.0
 11
820.6253626148266
 21
943.1496332456633
 31
0.0
  0
LINE
  5
123
330
1F
100
AcDbEntity
  8
VISIBLE
100
AcDbLine
 10
813.7673626148267
 20
943.1496332456633
 30
0.0
 11
820.6253626148266
 21
943.1496332456633
 31
0.0
  0
ARC
  5
124
330
1F
100
AcDbEntity
  8
VISIBLE
100
AcDbCircle
 10
808.6873626148266
 20
943.1496332456633
 30
0.0
 40
5.08
100
AcDbArc
 50
0.0000000000012822
 51
270.0
  0
LINE
  5
125
330
1F
100
AcDbEntity
  8
VISIBLE
100
AcDbLine
 10
808.6873626148266
 20
928.0926878487426
 30
0.0
 11
808.6873626148266
 21
938.0696332456632
 31
0.0
  0
LINE
  5
126
330
1F
100
AcDbEntity
  8
VISIBLE
100
AcDbLine
 10
808.6873626148266
 20
928.0926878487426
 30
0.0
 11
783.2873626148266
 21
928.0926878487426
 31
0.0
  0
LINE
  5
127
330
1F
100
AcDbEntity
  8
VISIBLE
100
AcDbLine
 10
783.2873626148266
 20
928.0926878487426
 30
0.0
 11
783.2873626148266
 21
940.7926878487425
 31
0.0
  0
ARC
  5
128
330
1F
100
AcDbEntity
  8
VISIBLE
100
AcDbCircle
 10
780.1123626148267
 20
940.7926878487425
 30
-0.0000000000000001
 40
3.175
100
AcDbArc
 50
0.0000000000020516
 51
179.999999999998
  0
LINE
  5
129
330
1F
100
AcDbEntity
  8
VISIBLE
100
AcDbLine
 10
776.9373626148266
 20
940.7926878487426
 30
0.0
 11
776.9373626148266
 21
928.0926878487426
 31
0.0
  0
LINE
  5
12A
330
1F
100
AcDbEntity
  8
VISIBLE
100
AcDbLine
 10
776.9373626148266
 20
928.0926878487426
 30
0.0
 11
770.5873626148266
 21
928.0926878487427
 31
0.0
  0
ARC
  5
12B
330
1F
100
AcDbEntity
  8
VISIBLE
100
AcDbCircle
 10
770.5873626148266
 20
924.9176878487425
 30
0.0
 40
3.175
100
AcDbArc
 50
90.0
 51
270.0
  0
LINE
  5
12C
330
1F
100
AcDbEntity
  8
VISIBLE
100
AcDbLine
 10
776.9373626148266
 20
921.7426878487425
 30
0.0
 11
770.5873626148266
 21
921.7426878487425
 31
0.0
  0
LINE
  5
12D
330
1F
100
AcDbEntity
  8
VISIBLE
100
AcDbLine
 10
776.9373626148266
 20
909.0426878487427
 30
0.0
 11
776.9373626148266
 21
921.7426878487425
 31
0.0
  0
ARC
  5
12E
330
1F
100
AcDbEntity
  8
VISIBLE
100
AcDbCircle
 10
780.1123626148267
 20
909.0426878487427
 30
0.0000000000000001
 40
3.175
100
AcDbArc
 50
179.999999999998
 51
0.0000000000020516
  0
LINE
  5
12F
330
1F
100
AcDbEntity
  8
VISIBLE
100
AcDbLine
 10
783.2873626148266
 20
921.7426878487425
 30
0.0
 11
783.2873626148266
 21
909.0426878487427
 31
0.0
  0
LINE
  5
130
330
1F
100
AcDbEntity
  8
VISIBLE
100
AcDbLine
 10
808.6873626148266
 20
921.7426878487427
 30
0.0
 11
783.2873626148266
 21
921.7426878487425
 31
0.0
  0
LINE
  5
131
330
1F
100
AcDbEntity
  8
VISIBLE
100
AcDbLine
 10
808.6873626148266
 20
911.765742451822
 30
0.0
 11
808.6873626148266
 21
921.7426878487427
 31
0.0
  0
ARC
  5
132
330
1F
100
AcDbEntity
  8
VISIBLE
100
AcDbCircle
 10
808.6873626148266
 20
906.6857424518221
 30
0.0
 40
5.08
100
AcDbArc
 50
90.0
 51
0.0000000000012822
  0
LINE
  5
133
330
1F
100
AcDbEntity
  8
VISIBLE
100
AcDbLine
 10
813.7673626148267
 20
906.6857424518221
 30
0.0
 11
820.6253626148266
 21
906.6857424518221
 31
0.0
  0
LINE
  5
134
330
1F
100
AcDbEntity
  8
VISIBLE
100
AcDbLine
 10
820.6253626148266
 20
906.6857424518221
 30
0.0
 11
820.6253626148266
 21
870.2218516579808
 31
0.0
  0
LINE
  5
135
330
1F
100
AcDbEntity
  8
VISIBLE
100
AcDbLine
 10
813.7673626148267
 20
870.2218516579808
 30
0.0
 11
820.6253626148266
 21
870.2218516579808
 31
0.0
  0
ARC
  5
136
330
1F
100
AcDbEntity
  8
VISIBLE
100
AcDbCircle
 10
808.6873626148266
 20
870.2218516579808
 30
0.0
 40
5.08
100
AcDbArc
 50
0.0000000000012822
 51
270.0
  0
LINE
  5
137
330
1F
100
AcDbEntity
  8
VISIBLE
100
AcDbLine
 10
808.6873626148266
 20
833.4071345854848
 30
0.0
 11
808.6873626148266
 21
865.1418516579807
 31
0.0
  0
LINE
  5
138
330
1F
100
AcDbEntity
  8
VISIBLE
100
AcDbLine
 10
808.6873626148266
 20
833.4071345854848
 30
0.0
 11
527.7633626148266
 21
833.4071345854848
 31
0.0
  0
LINE
  5
139
330
1F
100
AcDbEntity
  8
VISIBLE
100
AcDbLine
 10
527.7633626148266
 20
833.4071345854848
 30
0.0
 11
527.7633626148266
 21
865.1418516579807
 31
0.0
  0
ARC
  5
13A
330
1F
100
AcDbEntity
  8
VISIBLE
100
AcDbCircle
 10
527.7633626148266
 20
870.2218516579808
 30
0.0
 40
5.08
100
AcDbArc
 50
270.0
 51
179.9999999999987
  0
LINE
  5
13B
330
1F
100
AcDbEntity
  8
VISIBLE
100
AcDbLine
 10
515.8253626148266
 20
870.2218516579808
 30
0.0
 11
522.6833626148266
 21
870.2218516579808
 31
0.0
  0
LINE
  5
13C
330
1F
100
AcDbEntity
  8
VISIBLE
100
AcDbLine
 10
515.8253626148266
 20
906.6857424518221
 30
0.0
 11
515.8253626148266
 21
870.2218516579808
 31
0.0
  0
LINE
  5
13D
330
1F
100
AcDbEntity
  8
VISIBLE
100
AcDbLine
 10
515.8253626148266
 20
906.6857424518221
 30
0.0
 11
522.6833626148266
 21
906.6857424518221
 31
0.0
  0
ARC
  5
13E
330
1F
100
AcDbEntity
  8
VISIBLE
100
AcDbCircle
 10
527.7633626148266
 20
906.6857424518221
 30
0.0
 40
5.08
100
AcDbArc
 50
179.9999999999987
 51
90.0
  0
LINE
  5
13F
330
1F
100
AcDbEntity
  8
VISIBLE
100
AcDbLine
 10
527.7633626148266
 20
911.7657424518221
 30
0.0
 11
527.7633626148266
 21
921.7426878487427
 31
0.0
  0
LINE
  5
140
330
1F
100
AcDbEntity
  8
VISIBLE
100
AcDbLine
 10
527.7633626148266
 20
921.7426878487427
 30
0.0
 11
553.1633626148266
 21
921.7426878487425
 31
0.0
  0
LINE
  5
141
330
1F
100
AcDbEntity
  8
VISIBLE
100
AcDbLine
 10
553.1633626148266
 20
921.7426878487425
 30
0.0
 11
553.1633626148266
 21
909.0426878487425
 31
0.0
  0
ARC
  5
142
330
1F
100
AcDbEntity
  8
VISIBLE
100
AcDbCircle
 10
-556.3383626148266
 20
909.0426878487425
 30
0.0000000000000556
 40
3.175
210
0.0
220
6.123233995736766E-17
230
-1.0
100
AcDbArc
 50
180.0
 51
0.0
  0
LINE
  5
143
330
1F
100
AcDbEntity
  8
VISIBLE
100
AcDbLine
 10
559.5133626148266
 20
909.0426878487425
 30
0.0
 11
559.5133626148266
 21
921.7426878487425
 31
0.0
  0
LINE
  5
144
330
1F
100
AcDbEntity
  8
VISIBLE
100
AcDbLine
 10
559.5133626148266
 20
921.7426878487425
 30
0.0
 11
565.8633626148267
 21
921.7426878487425
 31
0.0
  0
ARC
  5
145
330
1F
100
AcDbEntity
  8
VISIBLE
100
AcDbCircle
 10
-565.8633626148267
 20
924.9176878487425
 30
0.0000000000000566
 40
3.175
210
0.0
220
6.123233995736766E-17
230
-1.0
100
AcDbArc
 50
90.0
 51
270.0
  0
LINE
  5
146
330
1F
100
AcDbEntity
  8
VISIBLE
100
AcDbLine
 10
559.5133626148266
 20
928.0926878487426
 30
0.0
 11
565.8633626148267
 21
928.0926878487427
 31
0.0
  0
LINE
  5
147
330
1F
100
AcDbEntity
  8
VISIBLE
100
AcDbLine
 10
559.5133626148266
 20
940.7926878487426
 30
0.0
 11
559.5133626148266
 21
928.0926878487426
 31
0.0
  0
ARC
  5
148
330
1F
100
AcDbEntity
  8
VISIBLE
100
AcDbCircle
 10
-556.3383626148266
 20
940.7926878487426
 30
0.0000000000000577
 40
3.175
210
0.0
220
6.123233995736766E-17
230
-1.0
100
AcDbArc
 50
0.0
 51
180.0
  0
LINE
  5
149
330
1F
100
AcDbEntity
  8
VISIBLE
100
AcDbLine
 10
553.1633626148266
 20
928.0926878487426
 30
0.0
 11
553.1633626148266
 21
940.7926878487426
 31
0.0
  0
LINE
  5
14A
330
1F
100
AcDbEntity
  8
VISIBLE
100
AcDbLine
 10
527.7633626148266
 20
928.0926878487426
 30
0.0
 11
553.1633626148266
 21
928.0926878487426
 31
0.0
  0
LINE
  5
14B
330
1F
100
AcDbEntity
  8
VISIBLE
100
AcDbLine
 10
527.7633626148266
 20
928.0926878487426
 30
0.0
 11
527.7633626148266
 21
938.0696332456633
 31
0.0
  0
ARC
  5
14C
330
1F
100
AcDbEntity
  8
VISIBLE
100
AcDbCircle
 10
527.7633626148266
 20
943.1496332456634
 30
0.0
 40
5.08
100
AcDbArc
 50
270.0
 51
179.9999999999987
  0
LINE
  5
14D
330
1F
100
AcDbEntity
  8
VISIBLE
100
AcDbLine
 10
515.8253626148266
 20
943.1496332456634
 30
0.0
 11
522.6833626148266
 21
943.1496332456634
 31
0.0
  0
LINE
  5
14E
330
1F
100
AcDbEntity
  8
VISIBLE
100
AcDbLine
 10
515.8253626148266
 20
979.6135240395046
 30
0.0
 11
515.8253626148266
 21
943.1496332456634
 31
0.0
  0
LINE
  5
14F
330
1F
100
AcDbEntity
  8
VISIBLE
100
AcDbLine
 10
515.8253626148266
 20
979.6135240395046
 30
0.0
 11
522.6833626148266
 21
979.6135240395046
 31
0.0
  0
ARC
  5
150
330
1F
100
AcDbEntity
  8
VISIBLE
100
AcDbCircle
 10
527.7633626148266
 20
979.6135240395046
 30
0.0
 40
5.08
100
AcDbArc
 50
179.9999999999987
 51
90.0
  0
LINE
  5
151
330
1F
100
AcDbEntity
  8
VISIBLE
100
AcDbLine
 10
527.7633626148266
 20
984.6935240395045
 30
0.0
 11
527.7633626148266
 21
1010.997414833346
 31
0.0
  0
ARC
  5
152
330
1F
100
AcDbEntity
  8
VISIBLE
100
AcDbCircle
 10
527.7633626148266
 20
1016.077414833346
 30
0.0
 40
5.08
100
AcDbArc
 50
270.0
 51
179.9999999999987
  0
LINE
  5
153
330
1F
100
AcDbEntity
  8
VISIBLE
100
AcDbLine
 10
515.8253626148266
 20
1016.077414833346
 30
0.0
 11
522.6833626148266
 21
1016.077414833346
 31
0.0
  0
LINE
  5
154
330
1F
100
AcDbEntity
  8
VISIBLE
100
AcDbLine
 10
515.8253626148266
 20
1052.541305627187
 30
0.0
 11
515.8253626148266
 21
1016.077414833346
 31
0.0
  0
LINE
  5
155
330
1F
100
AcDbEntity
  8
VISIBLE
100
AcDbLine
 10
515.8253626148266
 20
1052.541305627187
 30
0.0
 11
522.6833626148266
 21
1052.541305627187
 31
0.0
  0
ARC
  5
156
330
1F
100
AcDbEntity
  8
VISIBLE
100
AcDbCircle
 10
527.7633626148266
 20
1052.541305627187
 30
0.0
 40
5.08
100
AcDbArc
 50
180.0
 51
90.0
  0
LINE
  5
157
330
1F
100
AcDbEntity
  8
VISIBLE
100
AcDbLine
 10
527.7633626148266
 20
1057.621305627187
 30
0.0
 11
527.7633626148266
 21
1067.598251024107
 31
0.0
  0
LINE
  5
158
330
1F
100
AcDbEntity
  8
VISIBLE
100
AcDbLine
 10
527.7633626148266
 20
1067.598251024107
 30
0.0
 11
553.1633626148266
 21
1067.598251024107
 31
0.0
  0
LINE
  5
159
330
1F
100
AcDbEntity
  8
VISIBLE
100
AcDbLine
 10
553.1633626148266
 20
1067.598251024107
 30
0.0
 11
553.1633626148266
 21
1054.898251024107
 31
0.0
  0
ARC
  5
15A
330
1F
100
AcDbEntity
  8
VISIBLE
100
AcDbCircle
 10
556.3383626148266
 20
1054.898251024107
 30
0.0000000000000001
 40
3.175
100
AcDbArc
 50
180.0
 51
0.0
  0
LINE
  5
15B
330
1F
100
AcDbEntity
  8
VISIBLE
100
AcDbLine
 10
559.5133626148266
 20
1054.898251024107
 30
0.0
 11
559.5133626148266
 21
1067.598251024107
 31
0.0
  0
LINE
  5
15C
330
1F
100
AcDbEntity
  8
VISIBLE
100
AcDbLine
 10
559.5133626148266
 20
1067.598251024107
 30
0.0
 11
565.8633626148267
 21
1067.598251024107
 31
0.0
  0
ARC
  5
15D
330
1F
100
AcDbEntity
  8
VISIBLE
100
AcDbCircle
 10
565.8633626148267
 20
1070.773251024107
 30
0.0
 40
3.175
100
AcDbArc
 50
270.0
 51
90.0
  0
LINE
  5
15E
330
1F
100
AcDbEntity
  8
VISIBLE
100
AcDbLine
 10
559.5133626148266
 20
1073.948251024108
 30
0.0
 11
565.8633626148267
 21
1073.948251024108
 31
0.0
  0
LINE
  5
15F
330
1F
100
AcDbEntity
  8
VISIBLE
100
AcDbLine
 10
559.5133626148266
 20
1086.648251024108
 30
0.0
 11
559.5133626148266
 21
1073.948251024108
 31
0.0
  0
ARC
  5
160
330
1F
100
AcDbEntity
  8
VISIBLE
100
AcDbCircle
 10
556.3383626148266
 20
1086.648251024107
 30
-0.0000000000000001
 40
3.175
100
AcDbArc
 50
0.0
 51
180.0
  0
LINE
  5
161
330
1F
100
AcDbEntity
  8
VISIBLE
100
AcDbLine
 10
553.1633626148266
 20
1073.948251024108
 30
0.0
 11
553.1633626148266
 21
1086.648251024107
 31
0.0
  0
LINE
  5
162
330
1F
100
AcDbEntity
  8
VISIBLE
100
AcDbLine
 10
527.7633626148266
 20
1073.948251024108
 30
0.0
 11
553.1633626148266
 21
1073.948251024108
 31
0.0
  0
LINE
  5
163
330
1F
100
AcDbEntity
  8
VISIBLE
100
AcDbLine
 10
527.7633626148266
 20
1073.948251024108
 30
0.0
 11
527.7633626148266
 21
1083.925196421028
 31
0.0
  0
ARC
  5
164
330
1F
100
AcDbEntity
  8
VISIBLE
100
AcDbCircle
 10
527.7633626148266
 20
1089.005196421028
 30
0.0
 40
5.08
100
AcDbArc
 50
270.0
 51
180.0
  0
LINE
  5
165
330
1F
100
AcDbEntity
  8
VISIBLE
100
AcDbLine
 10
515.8253626148266
 20
1089.005196421028
 30
0.0
 11
522.6833626148266
 21
1089.005196421028
 31
0.0
  0
LINE
  5
166
330
1F
100
AcDbEntity
  8
VISIBLE
100
AcDbLine
 10
515.8253626148266
 20
1125.469087214869
 30
0.0
 11
515.8253626148266
 21
1089.005196421028
 31
0.0
  0
LINE
  5
167
330
1F
100
AcDbEntity
  8
VISIBLE
100
AcDbLine
 10
515.8253626148266
 20
1125.469087214869
 30
0.0
 11
522.6833626148266
 21
1125.469087214869
 31
0.0
  0
ARC
  5
168
330
1F
100
AcDbEntity
  8
VISIBLE
100
AcDbCircle
 10
527.7633626148266
 20
1125.469087214869
 30
0.0
 40
5.08
100
AcDbArc
 50
180.0
 51
90.0
  0
LINE
  5
169
330
1F
100
AcDbEntity
  8
VISIBLE
100
AcDbLine
 10
527.7633626148266
 20
1130.549087214869
 30
0.0
 11
527.7633626148266
 21
1146.081134585485
 31
0.0
  0
LINE
  5
16A
330
1F
100
AcDbEntity
  8
VISIBLE
100
AcDbLine
 10
808.6873626148266
 20
1146.081134585485
 30
0.0
 11
527.7633626148266
 21
1146.081134585485
 31
0.0
  0
LINE
  5
16B
330
1F
100
AcDbEntity
  8
VISIBLE
100
AcDbLine
 10
808.6873626148266
 20
1130.549087214869
 30
0.0
 11
808.6873626148266
 21
1146.081134585485
 31
0.0
  0
ARC
  5
16C
330
1F
100
AcDbEntity
  8
VISIBLE
100
AcDbCircle
 10
808.6873626148266
 20
1125.469087214869
 30
0.0
 40
5.08
100
AcDbArc
 50
90.0
 51
0.0
  0
LINE
  5
16D
330
1F
100
AcDbEntity
  8
VISIBLE
100
AcDbLine
 10
813.7673626148267
 20
1125.469087214869
 30
0.0
 11
820.6253626148266
 21
1125.469087214869
 31
0.0
  0
LINE
  5
16E
330
1F
100
AcDbEntity
  8
VISIBLE
100
AcDbLine
 10
820.6253626148266
 20
1125.469087214869
 30
0.0
 11
820.6253626148266
 21
1089.005196421028
 31
0.0
  0
LINE
  5
16F
330
1F
100
AcDbEntity
  8
VISIBLE
100
AcDbLine
 10
813.7673626148267
 20
1089.005196421028
 30
0.0
 11
820.6253626148266
 21
1089.005196421028
 31
0.0
  0
ARC
  5
170
330
1F
100
AcDbEntity
  8
VISIBLE
100
AcDbCircle
 10
808.6873626148266
 20
1089.005196421028
 30
0.0
 40
5.08
100
AcDbArc
 50
0.0
 51
270.0
  0
LINE
  5
171
330
1F
100
AcDbEntity
  8
VISIBLE
100
AcDbLine
 10
808.6873626148266
 20
1073.948251024108
 30
0.0
 11
808.6873626148266
 21
1083.925196421028
 31
0.0
  0
LINE
  5
172
330
1F
100
AcDbEntity
  8
VISIBLE
100
AcDbLine
 10
808.6873626148266
 20
1073.948251024108
 30
0.0
 11
783.2873626148266
 21
1073.948251024108
 31
0.0
  0
ARC
  5
174
330
1F
100
AcDbEntity
  8
VISIBLE
100
AcDbCircle
 10
888.8067554077984
 20
663.7366468568366
 30
0.0
 40
5.08
100
AcDbArc
 50
90.0
 51
0.0
  0
LINE
  5
175
330
1F
100
AcDbEntity
  8
VISIBLE
100
AcDbLine
 10
893.8867554077984
 20
663.7366468568366
 30
0.0
 11
900.7447554077984
 21
663.7366468568366
 31
0.0
  0
LINE
  5
176
330
1F
100
AcDbEntity
  8
VISIBLE
100
AcDbLine
 10
900.7447554077984
 20
663.7366468568366
 30
0.0
 11
900.7447554077984
 21
624.2255357457254
 31
0.0
  0
LINE
  5
177
330
1F
100
AcDbEntity
  8
VISIBLE
100
AcDbLine
 10
893.8867554077984
 20
624.2255357457254
 30
0.0
 11
900.7447554077984
 21
624.2255357457254
 31
0.0
  0
ARC
  5
178
330
1F
100
AcDbEntity
  8
VISIBLE
100
AcDbCircle
 10
888.8067554077984
 20
624.2255357457254
 30
0.0
 40
5.08
100
AcDbArc
 50
0.0
 51
270.0
  0
LINE
  5
179
330
1F
100
AcDbEntity
  8
VISIBLE
100
AcDbLine
 10
888.8067554077984
 20
589.7944246346145
 30
0.0
 11
888.8067554077984
 21
619.1455357457254
 31
0.0
  0
ARC
  5
17A
330
1F
100
AcDbEntity
  8
VISIBLE
100
AcDbCircle
 10
888.8067554077984
 20
584.7144246346145
 30
0.0
 40
5.08
100
AcDbArc
 50
90.0
 51
0.0
  0
LINE
  5
17B
330
1F
100
AcDbEntity
  8
VISIBLE
100
AcDbLine
 10
893.8867554077984
 20
584.7144246346145
 30
0.0
 11
900.7447554077984
 21
584.7144246346145
 31
0.0
  0
LINE
  5
17C
330
1F
100
AcDbEntity
  8
VISIBLE
100
AcDbLine
 10
900.7447554077984
 20
584.7144246346145
 30
0.0
 11
900.7447554077984
 21
545.2033135235032
 31
0.0
  0
LINE
  5
17D
330
1F
100
AcDbEntity
  8
VISIBLE
100
AcDbLine
 10
893.8867554077984
 20
545.2033135235032
 30
0.0
 11
900.7447554077984
 21
545.2033135235032
 31
0.0
  0
ARC
  5
17E
330
1F
100
AcDbEntity
  8
VISIBLE
100
AcDbCircle
 10
888.8067554077984
 20
545.2033135235032
 30
0.0
 40
5.08
100
AcDbArc
 50
0.0
 51
270.0
  0
LINE
  5
17F
330
1F
100
AcDbEntity
  8
VISIBLE
100
AcDbLine
 10
888.8067554077984
 20
528.6227579679476
 30
0.0
 11
888.8067554077984
 21
540.1233135235033
 31
0.0
  0
LINE
  5
180
330
1F
100
AcDbEntity
  8
VISIBLE
100
AcDbLine
 10
888.8067554077984
 20
528.6227579679476
 30
0.0
 11
863.4067554077984
 21
528.6227579679476
 31
0.0
  0
LINE
  5
181
330
1F
100
AcDbEntity
  8
VISIBLE
100
AcDbLine
 10
863.4067554077984
 20
528.6227579679476
 30
0.0
 11
863.4067554077984
 21
541.3227579679475
 31
0.0
  0
ARC
  5
182
330
1F
100
AcDbEntity
  8
VISIBLE
100
AcDbCircle
 10
860.2317554077983
 20
541.3227579679475
 30
-0.0000000000000001
 40
3.175
100
AcDbArc
 50
0.0
 51
180.0
  0
LINE
  5
183
330
1F
100
AcDbEntity
  8
VISIBLE
100
AcDbLine
 10
857.0567554077984
 20
541.3227579679475
 30
0.0
 11
857.0567554077984
 21
528.6227579679476
 31
0.0
  0
LINE
  5
184
330
1F
100
AcDbEntity
  8
VISIBLE
100
AcDbLine
 10
857.0567554077984
 20
528.6227579679476
 30
0.0
 11
850.7067554077984
 21
528.6227579679476
 31
0.0
  0
ARC
  5
185
330
1F
100
AcDbEntity
  8
VISIBLE
100
AcDbCircle
 10
850.7067554077984
 20
525.4477579679475
 30
0.0
 40
3.175
100
AcDbArc
 50
90.0
 51
270.0
  0
LINE
  5
186
330
1F
100
AcDbEntity
  8
VISIBLE
100
AcDbLine
 10
857.0567554077984
 20
522.2727579679475
 30
0.0
 11
850.7067554077984
 21
522.2727579679475
 31
0.0
  0
LINE
  5
187
330
1F
100
AcDbEntity
  8
VISIBLE
100
AcDbLine
 10
857.0567554077984
 20
509.5727579679475
 30
0.0
 11
857.0567554077984
 21
522.2727579679475
 31
0.0
  0
ARC
  5
188
330
1F
100
AcDbEntity
  8
VISIBLE
100
AcDbCircle
 10
860.2317554077983
 20
509.5727579679475
 30
0.0000000000000001
 40
3.175
100
AcDbArc
 50
179.999999999999
 51
0.0000000000010258
  0
LINE
  5
189
330
1F
100
AcDbEntity
  8
VISIBLE
100
AcDbLine
 10
863.4067554077984
 20
522.2727579679475
 30
0.0
 11
863.4067554077984
 21
509.5727579679475
 31
0.0
  0
LINE
  5
18A
330
1F
100
AcDbEntity
  8
VISIBLE
100
AcDbLine
 10
888.8067554077984
 20
522.2727579679475
 30
0.0
 11
863.4067554077984
 21
522.2727579679475
 31
0.0
  0
LINE
  5
18B
330
1F
100
AcDbEntity
  8
VISIBLE
100
AcDbLine
 10
888.8067554077984
 20
510.7722024123922
 30
0.0
 11
888.8067554077984
 21
522.2727579679475
 31
0.0
  0
ARC
  5
18C
330
1F
100
AcDbEntity
  8
VISIBLE
100
AcDbCircle
 10
888.8067554077984
 20
505.6922024123922
 30
0.0
 40
5.08
100
AcDbArc
 50
90.0
 51
0.0000000000006411
  0
LINE
  5
18D
330
1F
100
AcDbEntity
  8
VISIBLE
100
AcDbLine
 10
893.8867554077984
 20
505.6922024123922
 30
0.0
 11
900.7447554077984
 21
505.6922024123922
 31
0.0
  0
LINE
  5
18E
330
1F
100
AcDbEntity
  8
VISIBLE
100
AcDbLine
 10
900.7447554077984
 20
505.6922024123922
 30
0.0
 11
900.7447554077984
 21
466.181091301281
 31
0.0
  0
LINE
  5
18F
330
1F
100
AcDbEntity
  8
VISIBLE
100
AcDbLine
 10
893.8867554077984
 20
466.181091301281
 30
0.0
 11
900.7447554077984
 21
466.181091301281
 31
0.0
  0
ARC
  5
190
330
1F
100
AcDbEntity
  8
VISIBLE
100
AcDbCircle
 10
888.8067554077984
 20
466.181091301281
 30
0.0
 40
5.08
100
AcDbArc
 50
0.0000000000006411
 51
270.0
  0
LINE
  5
191
330
1F
100
AcDbEntity
  8
VISIBLE
100
AcDbLine
 10
888.8067554077984
 20
425.1385635738499
 30
0.0
 11
888.8067554077984
 21
461.1010913012809
 31
0.0
  0
LINE
  5
192
330
1F
100
AcDbEntity
  8
VISIBLE
100
AcDbLine
 10
888.8067554077984
 20
425.1385635738499
 30
0.0
 11
607.8827554077984
 21
425.1385635738499
 31
0.0
  0
LINE
  5
193
330
1F
100
AcDbEntity
  8
VISIBLE
100
AcDbLine
 10
607.8827554077984
 20
425.1385635738499
 30
0.0
 11
607.8827554077984
 21
461.1010913012809
 31
0.0
  0
ARC
  5
194
330
1F
100
AcDbEntity
  8
VISIBLE
100
AcDbCircle
 10
607.8827554077984
 20
466.181091301281
 30
0.0
 40
5.08
100
AcDbArc
 50
270.0
 51
179.9999999999994
  0
LINE
  5
195
330
1F
100
AcDbEntity
  8
VISIBLE
100
AcDbLine
 10
602.8027554077984
 20
466.181091301281
 30
0.0
 11
595.9447554077984
 21
466.181091301281
 31
0.0
  0
LINE
  5
196
330
1F
100
AcDbEntity
  8
VISIBLE
100
AcDbLine
 10
595.9447554077984
 20
505.6922024123924
 30
0.0
 11
595.9447554077984
 21
466.181091301281
 31
0.0
  0
LINE
  5
197
330
1F
100
AcDbEntity
  8
VISIBLE
100
AcDbLine
 10
602.8027554077984
 20
505.6922024123924
 30
0.0
 11
595.9447554077984
 21
505.6922024123924
 31
0.0
  0
ARC
  5
198
330
1F
100
AcDbEntity
  8
VISIBLE
100
AcDbCircle
 10
607.8827554077984
 20
505.6922024123924
 30
0.0
 40
5.08
100
AcDbArc
 50
179.9999999999994
 51
90.0
  0
LINE
  5
199
330
1F
100
AcDbEntity
  8
VISIBLE
100
AcDbLine
 10
607.8827554077984
 20
510.7722024123923
 30
0.0
 11
607.8827554077984
 21
522.2727579679478
 31
0.0
  0
LINE
  5
19A
330
1F
100
AcDbEntity
  8
VISIBLE
100
AcDbLine
 10
607.8827554077984
 20
522.2727579679478
 30
0.0
 11
633.2827554077984
 21
522.2727579679478
 31
0.0
  0
LINE
  5
19B
330
1F
100
AcDbEntity
  8
VISIBLE
100
AcDbLine
 10
633.2827554077984
 20
522.2727579679478
 30
0.0
 11
633.2827554077984
 21
509.5727579679477
 31
0.0
  0
ARC
  5
19C
330
1F
100
AcDbEntity
  8
VISIBLE
100
AcDbCircle
 10
-636.4577554077985
 20
509.5727579679477
 30
0.0000000000000311
 40
3.175
210
0.0
220
6.123233995736766E-17
230
-1.0
100
AcDbArc
 50
180.0
 51
0.0
  0
LINE
  5
19D
330
1F
100
AcDbEntity
  8
VISIBLE
100
AcDbLine
 10
639.6327554077984
 20
509.5727579679477
 30
0.0
 11
639.6327554077984
 21
522.2727579679478
 31
0.0
  0
LINE
  5
19E
330
1F
100
AcDbEntity
  8
VISIBLE
100
AcDbLine
 10
639.6327554077984
 20
522.2727579679478
 30
0.0
 11
645.9827554077984
 21
522.2727579679478
 31
0.0
  0
ARC
  5
19F
330
1F
100
AcDbEntity
  8
VISIBLE
100
AcDbCircle
 10
-645.9827554077984
 20
525.4477579679477
 30
0.0000000000000322
 40
3.175
210
0.0
220
6.123233995736766E-17
230
-1.0
100
AcDbArc
 50
90.0
 51
270.0
  0
LINE
  5
1A0
330
1F
100
AcDbEntity
  8
VISIBLE
100
AcDbLine
 10
639.6327554077984
 20
528.6227579679478
 30
0.0
 11
645.9827554077984
 21
528.6227579679478
 31
0.0
  0
LINE
  5
1A1
330
1F
100
AcDbEntity
  8
VISIBLE
100
AcDbLine
 10
639.6327554077984
 20
541.3227579679477
 30
0.0
 11
639.6327554077984
 21
528.6227579679478
 31
0.0
  0
ARC
  5
1A2
330
1F
100
AcDbEntity
  8
VISIBLE
100
AcDbCircle
 10
-636.4577554077985
 20
541.3227579679477
 30
0.0000000000000332
 40
3.175
210
0.0
220
6.123233995736766E-17
230
-1.0
100
AcDbArc
 50
0.0
 51
180.0
  0
LINE
  5
1A3
330
1F
100
AcDbEntity
  8
VISIBLE
100
AcDbLine
 10
633.2827554077984
 20
528.6227579679478
 30
0.0
 11
633.2827554077984
 21
541.3227579679477
 31
0.0
  0
LINE
  5
1A4
330
1F
100
AcDbEntity
  8
VISIBLE
100
AcDbLine
 10
607.8827554077984
 20
528.6227579679478
 30
0.0
 11
633.2827554077984
 21
528.6227579679478
 31
0.0
  0
LINE
  5
1A5
330
1F
100
AcDbEntity
  8
VISIBLE
100
AcDbLine
 10
607.8827554077984
 20
528.6227579679478
 30
0.0
 11
607.8827554077984
 21
540.1233135235034
 31
0.0
  0
ARC
  5
1A6
330
1F
100
AcDbEntity
  8
VISIBLE
100
AcDbCircle
 10
607.8827554077984
 20
545.2033135235033
 30
0.0
 40
5.08
100
AcDbArc
 50
270.0
 51
180.0
  0
LINE
  5
1A7
330
1F
100
AcDbEntity
  8
VISIBLE
100
AcDbLine
 10
602.8027554077984
 20
545.2033135235033
 30
0.0
 11
595.9447554077984
 21
545.2033135235033
 31
0.0
  0
LINE
  5
1A8
330
1F
100
AcDbEntity
  8
VISIBLE
100
AcDbLine
 10
595.9447554077984
 20
584.7144246346146
 30
0.0
 11
595.9447554077984
 21
545.2033135235033
 31
0.0
  0
LINE
  5
1A9
330
1F
100
AcDbEntity
  8
VISIBLE
100
AcDbLine
 10
602.8027554077984
 20
584.7144246346146
 30
0.0
 11
595.9447554077984
 21
584.7144246346146
 31
0.0
  0
ARC
  5
1AA
330
1F
100
AcDbEntity
  8
VISIBLE
100
AcDbCircle
 10
607.8827554077984
 20
584.7144246346146
 30
0.0
 40
5.08
100
AcDbArc
 50
180.0
 51
90.0
  0
LINE
  5
1AB
330
1F
100
AcDbEntity
  8
VISIBLE
100
AcDbLine
 10
607.8827554077984
 20
589.7944246346145
 30
0.0
 11
607.8827554077984
 21
619.1455357457255
 31
0.0
  0
ARC
  5
1AC
330
1F
100
AcDbEntity
  8
VISIBLE
100
AcDbCircle
 10
607.8827554077984
 20
624.2255357457254
 30
0.0
 40
5.08
100
AcDbArc
 50
270.0
 51
180.0
  0
LINE
  5
1AD
330
1F
100
AcDbEntity
  8
VISIBLE
100
AcDbLine
 10
602.8027554077984
 20
624.2255357457254
 30
0.0
 11
595.9447554077984
 21
624.2255357457254
 31
0.0
  0
LINE
  5
1AE
330
1F
100
AcDbEntity
  8
VISIBLE
100
AcDbLine
 10
595.9447554077984
 20
663.7366468568367
 30
0.0
 11
595.9447554077984
 21
624.2255357457254
 31
0.0
  0
LINE
  5
1AF
330
1F
100
AcDbEntity
  8
VISIBLE
100
AcDbLine
 10
602.8027554077984
 20
663.7366468568367
 30
0.0
 11
595.9447554077984
 21
663.7366468568367
 31
0.0
  0
ARC
  5
1B0
330
1F
100
AcDbEntity
  8
VISIBLE
100
AcDbCircle
 10
607.8827554077984
 20
663.7366468568367
 30
0.0
 40
5.08
100
AcDbArc
 50
180.0
 51
90.0
  0
LINE
  5
1B1
330
1F
100
AcDbEntity
  8
VISIBLE
100
AcDbLine
 10
607.8827554077984
 20
668.8166468568368
 30
0.0
 11
607.8827554077984
 21
680.3172024123924
 31
0.0
  0
LINE
  5
1B2
330
1F
100
AcDbEntity
  8
VISIBLE
100
AcDbLine
 10
607.8827554077984
 20
680.3172024123924
 30
0.0
 11
633.2827554077984
 21
680.3172024123924
 31
0.0
  0
LINE
  5
1B3
330
1F
100
AcDbEntity
  8
VISIBLE
100
AcDbLine
 10
633.2827554077984
 20
680.3172024123924
 30
0.0
 11
633.2827554077984
 21
667.6172024123923
 31
0.0
  0
ARC
  5
1B4
330
1F
100
AcDbEntity
  8
VISIBLE
100
AcDbCircle
 10
636.4577554077985
 20
667.6172024123923
 30
0.0000000000000001
 40
3.175
100
AcDbArc
 50
180.0
 51
0.0
  0
LINE
  5
1B5
330
1F
100
AcDbEntity
  8
VISIBLE
100
AcDbLine
 10
639.6327554077984
 20
667.6172024123923
 30
0.0
 11
639.6327554077984
 21
680.3172024123924
 31
0.0
  0
LINE
  5
1B6
330
1F
100
AcDbEntity
  8
VISIBLE
100
AcDbLine
 10
639.6327554077984
 20
680.3172024123924
 30
0.0
 11
645.9827554077984
 21
680.3172024123924
 31
0.0
  0
ARC
  5
1B7
330
1F
100
AcDbEntity
  8
VISIBLE
100
AcDbCircle
 10
645.9827554077984
 20
683.4922024123923
 30
0.0
 40
3.175
100
AcDbArc
 50
270.0
 51
90.0
  0
LINE
  5
1B8
330
1F
100
AcDbEntity
  8
VISIBLE
100
AcDbLine
 10
639.6327554077984
 20
686.6672024123924
 30
0.0
 11
645.9827554077984
 21
686.6672024123924
 31
0.0
  0
LINE
  5
1B9
330
1F
100
AcDbEntity
  8
VISIBLE
100
AcDbLine
 10
639.6327554077984
 20
699.3672024123923
 30
0.0
 11
639.6327554077984
 21
686.6672024123924
 31
0.0
  0
ARC
  5
1BA
330
1F
100
AcDbEntity
  8
VISIBLE
100
AcDbCircle
 10
636.4577554077985
 20
699.3672024123923
 30
-0.0000000000000001
 40
3.175
100
AcDbArc
 50
0.0
 51
180.0
  0
LINE
  5
1BB
330
1F
100
AcDbEntity
  8
VISIBLE
100
AcDbLine
 10
633.2827554077984
 20
686.6672024123924
 30
0.0
 11
633.2827554077984
 21
699.3672024123923
 31
0.0
  0
LINE
  5
1BC
330
1F
100
AcDbEntity
  8
VISIBLE
100
AcDbLine
 10
607.8827554077984
 20
686.6672024123924
 30
0.0
 11
633.2827554077984
 21
686.6672024123924
 31
0.0
  0
LINE
  5
1BD
330
1F
100
AcDbEntity
  8
VISIBLE
100
AcDbLine
 10
607.8827554077984
 20
686.6672024123924
 30
0.0
 11
607.8827554077984
 21
698.1677579679479
 31
0.0
  0
ARC
  5
1BE
330
1F
100
AcDbEntity
  8
VISIBLE
100
AcDbCircle
 10
607.8827554077984
 20
703.2477579679479
 30
0.0
 40
5.08
100
AcDbArc
 50
270.0
 51
180.0
  0
LINE
  5
1BF
330
1F
100
AcDbEntity
  8
VISIBLE
100
AcDbLine
 10
602.8027554077984
 20
703.2477579679479
 30
0.0
 11
595.9447554077984
 21
703.2477579679479
 31
0.0
  0
LINE
  5
1C0
330
1F
100
AcDbEntity
  8
VISIBLE
100
AcDbLine
 10
595.9447554077984
 20
764.8635635738499
 30
0.0
 11
595.9447554077984
 21
703.2477579679479
 31
0.0
  0
LINE
  5
1C1
330
1F
100
AcDbEntity
  8
VISIBLE
100
AcDbLine
 10
900.7447554077984
 20
764.8635635738499
 30
0.0
 11
595.9447554077984
 21
764.8635635738499
 31
0.0
  0
LINE
  5
1C2
330
1F
100
AcDbEntity
  8
VISIBLE
100
AcDbLine
 10
900.7447554077984
 20
764.8635635738499
 30
0.0
 11
900.7447554077984
 21
703.2477579679479
 31
0.0
  0
LINE
  5
1C3
330
1F
100
AcDbEntity
  8
VISIBLE
100
AcDbLine
 10
893.8867554077984
 20
703.2477579679479
 30
0.0
 11
900.7447554077984
 21
703.2477579679479
 31
0.0
  0
ARC
  5
1C4
330
1F
100
AcDbEntity
  8
VISIBLE
100
AcDbCircle
 10
888.8067554077984
 20
703.2477579679479
 30
0.0
 40
5.08
100
AcDbArc
 50
0.0
 51
270.0
  0
LINE
  5
1C5
330
1F
100
AcDbEntity
  8
VISIBLE
100
AcDbLine
 10
888.8067554077984
 20
686.6672024123924
 30
0.0
 11
888.8067554077984
 21
698.1677579679479
 31
0.0
  0
LINE
  5
1C6
330
1F
100
AcDbEntity
  8
VISIBLE
100
AcDbLine
 10
888.8067554077984
 20
686.6672024123924
 30
0.0
 11
863.4067554077984
 21
686.6672024123924
 31
0.0
  0
LINE
  5
1C7
330
1F
100
AcDbEntity
  8
VISIBLE
100
AcDbLine
 10
863.4067554077984
 20
686.6672024123924
 30
0.0
 11
863.4067554077984
 21
699.3672024123923
 31
0.0
  0
ARC
  5
1C8
330
1F
100
AcDbEntity
  8
VISIBLE
100
AcDbCircle
 10
-860.2317554077983
 20
699.3672024123923
 30
0.0000000000000429
 40
3.175
210
0.0
220
6.123233995736766E-17
230
-1.0
100
AcDbArc
 50
0.0
 51
180.0
  0
LINE
  5
1C9
330
1F
100
AcDbEntity
  8
VISIBLE
100
AcDbLine
 10
857.0567554077984
 20
699.3672024123923
 30
0.0
 11
857.0567554077984
 21
686.6672024123924
 31
0.0
  0
LINE
  5
1CA
330
1F
100
AcDbEntity
  8
VISIBLE
100
AcDbLine
 10
857.0567554077984
 20
686.6672024123924
 30
0.0
 11
850.7067554077984
 21
686.6672024123924
 31
0.0
  0
ARC
  5
1CB
330
1F
100
AcDbEntity
  8
VISIBLE
100
AcDbCircle
 10
-850.7067554077984
 20
683.4922024123923
 30
0.0000000000000419
 40
3.175
210
0.0
220
6.123233995736766E-17
230
-1.0
100
AcDbArc
 50
270.0
 51
90.0
  0
LINE
  5
1CC
330
1F
100
AcDbEntity
  8
VISIBLE
100
AcDbLine
 10
857.0567554077984
 20
680.3172024123924
 30
0.0
 11
850.7067554077984
 21
680.3172024123924
 31
0.0
  0
LINE
  5
1CD
330
1F
100
AcDbEntity
  8
VISIBLE
100
AcDbLine
 10
857.0567554077984
 20
667.6172024123923
 30
0.0
 11
857.0567554077984
 21
680.3172024123924
 31
0.0
  0
ARC
  5
1CE
330
1F
100
AcDbEntity
  8
VISIBLE
100
AcDbCircle
 10
-860.2317554077983
 20
667.6172024123923
 30
0.0000000000000408
 40
3.175
210
0.0
220
6.123233995736766E-17
230
-1.0
100
AcDbArc
 50
180.0
 51
0.0
  0
LINE
  5
1CF
330
1F
100
AcDbEntity
  8
VISIBLE
100
AcDbLine
 10
863.4067554077984
 20
680.3172024123924
 30
0.0
 11
863.4067554077984
 21
667.6172024123923
 31
0.0
  0
LINE
  5
1D0
330
1F
100
AcDbEntity
  8
VISIBLE
100
AcDbLine
 10
888.8067554077984
 20
680.3172024123924
 30
0.0
 11
863.4067554077984
 21
680.3172024123924
 31
0.0
  0
LINE
  5
1D1
330
1F
100
AcDbEntity
  8
VISIBLE
100
AcDbLine
 10
888.8067554077984
 20
668.8166468568367
 30
0.0
 11
888.8067554077984
 21
680.3172024123924
 31
0.0
  0
CIRCLE
  5
1D2
330
1F
100
AcDbEntity
  8
VISIBLE
100
AcDbCircle
 10
-894.3947554077984
 20
643.9810913012811
 30
0.0000000000000394
 40
3.175
210
0.0
220
6.123233995736766E-17
230
-1.0
  0
CIRCLE
  5
1D3
330
1F
100
AcDbEntity
  8
VISIBLE
100
AcDbCircle
 10
602.2947554077984
 20
643.9810913012811
 30
0.0
 40
3.175
  0
CIRCLE
  5
1D4
330
1F
100
AcDbEntity
  8
VISIBLE
100
AcDbCircle
 10
-894.3947554077984
 20
485.9366468568367
 30
0.0000000000000298
 40
3.175
210
0.0
220
6.123233995736766E-17
230
-1.0
  0
CIRCLE
  5
1D5
330
1F
100
AcDbEntity
  8
VISIBLE
100
AcDbCircle
 10
602.2947554077984
 20
485.9366468568367
 30
0.0
 40
3.175
  0
LINE
  5
1D7
330
1F
100
AcDbEntity
  8
VISIBLE
100
AcDbLine
 10
832.1693008004677
 20
234.7710775923869
 30
0.0
 11
832.1693008004677
 21
257.4786775923869
 31
0.0
  0
ARC
  5
1D8
330
1F
100
AcDbEntity
  8
VISIBLE
100
AcDbCircle
 10
832.1693008004677
 20
229.6910775923869
 30
0.0
 40
5.08
100
AcDbArc
 50
90.0
 51
0.0
  0
LINE
  5
1D9
330
1F
100
AcDbEntity
  8
VISIBLE
100
AcDbLine
 10
837.2493008004677
 20
229.6910775923869
 30
0.0
 11
844.1073008004677
 21
229.6910775923869
 31
0.0
  0
LINE
  5
1DA
330
1F
100
AcDbEntity
  8
VISIBLE
100
AcDbLine
 10
837.2493008004677
 20
196.8234775923868
 30
0.0
 11
844.1073008004677
 21
196.8234775923868
 31
0.0
  0
ARC
  5
1DB
330
1F
100
AcDbEntity
  8
VISIBLE
100
AcDbCircle
 10
832.1693008004677
 20
196.8234775923868
 30
0.0
 40
5.08
100
AcDbArc
 50
0.0
 51
270.0
  0
LINE
  5
1DC
330
1F
100
AcDbEntity
  8
VISIBLE
100
AcDbLine
 10
832.1693008004677
 20
168.7200324046389
 30
0.0
 11
832.1693008004677
 21
191.7434775923869
 31
0.0
  0
LINE
  5
1DD
330
1F
100
AcDbEntity
  8
VISIBLE
100
AcDbLine
 10
551.2453008004677
 20
168.7200324046389
 30
0.0
 11
551.2453008004677
 21
191.7434775923869
 31
0.0
  0
ARC
  5
1DE
330
1F
100
AcDbEntity
  8
VISIBLE
100
AcDbCircle
 10
551.2453008004677
 20
196.8234775923868
 30
0.0
 40
5.08
100
AcDbArc
 50
270.0
 51
180.0
  0
LINE
  5
1DF
330
1F
100
AcDbEntity
  8
VISIBLE
100
AcDbLine
 10
546.1653008004677
 20
196.8234775923868
 30
0.0
 11
539.3073008004677
 21
196.8234775923868
 31
0.0
  0
LINE
  5
1E0
330
1F
100
AcDbEntity
  8
VISIBLE
100
AcDbLine
 10
546.1653008004677
 20
229.6910775923869
 30
0.0
 11
539.3073008004677
 21
229.6910775923869
 31
0.0
  0
ARC
  5
1E1
330
1F
100
AcDbEntity
  8
VISIBLE
100
AcDbCircle
 10
551.2453008004677
 20
229.6910775923869
 30
0.0
 40
5.08
100
AcDbArc
 50
180.0
 51
90.0
  0
LINE
  5
1E2
330
1F
100
AcDbEntity
  8
VISIBLE
100
AcDbLine
 10
551.2453008004677
 20
234.7710775923869
 30
0.0
 11
551.2453008004677
 21
257.4786775923869
 31
0.0
  0
ARC
  5
1E3
330
1F
100
AcDbEntity
  8
VISIBLE
100
AcDbCircle
 10
551.2453008004677
 20
262.5586775923869
 30
0.0
 40
5.08
100
AcDbArc
 50
270.0
 51
179.9999999999994
  0
LINE
  5
1E4
330
1F
100
AcDbEntity
  8
VISIBLE
100
AcDbLine
 10
546.1653008004677
 20
262.558677592387
 30
0.0
 11
539.3073008004677
 21
262.558677592387
 31
0.0
  0
LINE
  5
1E5
330
1F
100
AcDbEntity
  8
VISIBLE
100
AcDbLine
 10
546.1653008004677
 20
295.426277592387
 30
0.0
 11
539.3073008004677
 21
295.426277592387
 31
0.0
  0
ARC
  5
1E6
330
1F
100
AcDbEntity
  8
VISIBLE
100
AcDbCircle
 10
551.2453008004677
 20
295.426277592387
 30
0.0
 40
5.08
100
AcDbArc
 50
180.0
 51
90.0
  0
LINE
  5
1E7
330
1F
100
AcDbEntity
  8
VISIBLE
100
AcDbLine
 10
551.2453008004677
 20
300.5062775923869
 30
0.0
 11
551.2453008004677
 21
321.1200324046388
 31
0.0
  0
LINE
  5
1E8
330
1F
100
AcDbEntity
  8
VISIBLE
100
AcDbLine
 10
832.1693008004677
 20
300.5062775923869
 30
0.0
 11
832.1693008004677
 21
321.1200324046388
 31
0.0
  0
ARC
  5
1E9
330
1F
100
AcDbEntity
  8
VISIBLE
100
AcDbCircle
 10
832.1693008004677
 20
295.426277592387
 30
0.0
 40
5.08
100
AcDbArc
 50
90.0
 51
0.0
  0
LINE
  5
1EA
330
1F
100
AcDbEntity
  8
VISIBLE
100
AcDbLine
 10
837.2493008004677
 20
295.426277592387
 30
0.0
 11
844.1073008004677
 21
295.426277592387
 31
0.0
  0
LINE
  5
1EB
330
1F
100
AcDbEntity
  8
VISIBLE
100
AcDbLine
 10
837.2493008004677
 20
262.5586775923869
 30
0.0
 11
844.1073008004677
 21
262.5586775923869
 31
0.0
  0
ARC
  5
1EC
330
1F
100
AcDbEntity
  8
VISIBLE
100
AcDbCircle
 10
832.1693008004677
 20
262.5586775923869
 30
0.0
 40
5.08
100
AcDbArc
 50
0.0
 51
270.0
  0
CIRCLE
  5
1ED
330
1F
100
AcDbEntity
  8
VISIBLE
100
AcDbCircle
 10
545.6573008004677
 20
278.9924775923869
 30
0.0
 40
3.175
  0
CIRCLE
  5
1EE
330
1F
100
AcDbEntity
  8
VISIBLE
100
AcDbCircle
 10
837.7573008004676
 20
278.9924775923869
 30
0.0
 40
3.175
  0
CIRCLE
  5
1EF
330
1F
100
AcDbEntity
  8
VISIBLE
100
AcDbCircle
 10
837.7573008004676
 20
213.2572775923869
 30
0.0
 40
3.175
  0
CIRCLE
  5
1F0
330
1F
100
AcDbEntity
  8
VISIBLE
100
AcDbCircle
 10
545.6573008004677
 20
213.2572775923869
 30
0.0
 40
3.175
  0
LINE
  5
1F1
330
1F
100
AcDbEntity
  8
VISIBLE
100
AcDbLine
 10
832.1693008004677
 20
168.7200324046389
 30
0.0
 11
551.2453008004677
 21
168.7200324046389
 31
0.0
  0
LINE
  5
1F2
330
1F
100
AcDbEntity
  8
VISIBLE
100
AcDbLine
 10
539.3073008004677
 20
229.6910775923869
 30
0.0
 11
539.3073008004677
 21
196.8234775923868
 31
0.0
  0
LINE
  5
1F3
330
1F
100
AcDbEntity
  8
VISIBLE
100
AcDbLine
 10
539.3073008004677
 20
295.426277592387
 30
0.0
 11
539.3073008004677
 21
262.558677592387
 31
0.0
  0
LINE
  5
1F4
330
1F
100
AcDbEntity
  8
VISIBLE
100
AcDbLine
 10
832.1693008004677
 20
321.1200324046388
 30
0.0
 11
551.2453008004677
 21
321.1200324046388
 31
0.0
  0
LINE
  5
1F5
330
1F
100
AcDbEntity
  8
VISIBLE
100
AcDbLine
 10
844.1073008004677
 20
229.6910775923869
 30
0.0
 11
844.1073008004677
 21
196.8234775923868
 31
0.0
  0
LINE
  5
1F6
330
1F
100
AcDbEntity
  8
VISIBLE
100
AcDbLine
 10
844.1073008004677
 20
295.426277592387
 30
0.0
 11
844.1073008004677
 21
262.5586775923869
 31
0.0
  0
LINE
  5
1F8
330
1F
100
AcDbEntity
  8
VISIBLE
100
AcDbLine
 10
325.8819066984855
 20
662.2829807431539
 30
0.0
 11
313.3089066984855
 21
662.2829807431539
 31
0.0
  0
ARC
  5
1F9
330
1F
100
AcDbEntity
  8
VISIBLE
100
AcDbCircle
 10
-313.3089066984855
 20
658.9809807431539
 30
0.0000000000000786
 40
3.302
210
1.224646799147353E-16
220
6.123233995736766E-17
230
-1.0
100
AcDbArc
 50
270.0
 51
90.0
  0
LINE
  5
1FA
330
1F
100
AcDbEntity
  8
VISIBLE
100
AcDbLine
 10
313.3089066984855
 20
655.6789807431539
 30
0.0
 11
325.8819066984855
 21
655.6789807431539
 31
0.0
  0
LINE
  5
1FB
330
1F
100
AcDbEntity
  8
VISIBLE
100
AcDbLine
 10
325.8819066984855
 20
655.6789807431539
 30
0.0
 11
325.8819066984855
 21
649.0749807431539
 31
0.0
  0
ARC
  5
1FC
330
1F
100
AcDbEntity
  8
VISIBLE
100
AcDbCircle
 10
-329.183906698486
 20
649.0749807431539
 30
0.0000000000000801
 40
3.302
210
1.224646799147353E-16
220
6.123233995736766E-17
230
-1.0
100
AcDbArc
 50
180.0
 51
0.0
  0
LINE
  5
1FD
330
1F
100
AcDbEntity
  8
VISIBLE
100
AcDbLine
 10
332.485906698486
 20
655.6789807431539
 30
0.0
 11
332.485906698486
 21
649.0749807431539
 31
0.0
  0
LINE
  5
1FE
330
1F
100
AcDbEntity
  8
VISIBLE
100
AcDbLine
 10
345.058906698486
 20
655.6789807431539
 30
0.0
 11
332.485906698486
 21
655.6789807431539
 31
0.0
  0
ARC
  5
1FF
330
1F
100
AcDbEntity
  8
VISIBLE
100
AcDbCircle
 10
-345.058906698486
 20
658.9809807431539
 30
0.0000000000000827
 40
3.302
210
1.224646799147353E-16
220
6.123233995736766E-17
230
-1.0
100
AcDbArc
 50
89.99999999999113
 51
270.0
  0
LINE
  5
200
330
1F
100
AcDbEntity
  8
VISIBLE
100
AcDbLine
 10
332.485906698486
 20
662.2829807431539
 30
0.0
 11
345.0589066984855
 21
662.2829807431539
 31
0.0
  0
LINE
  5
201
330
1F
100
AcDbEntity
  8
VISIBLE
100
AcDbLine
 10
332.4859066984855
 20
687.1749807431539
 30
0.0
 11
332.485906698486
 21
662.2829807431539
 31
0.0
  0
LINE
  5
202
330
1F
100
AcDbEntity
  8
VISIBLE
100
AcDbLine
 10
340.5377066984855
 20
687.1749807431539
 30
0.0
 11
332.4859066984855
 21
687.1749807431539
 31
0.0
  0
ARC
  5
203
330
1F
100
AcDbEntity
  8
VISIBLE
100
AcDbCircle
 10
-345.6177066984857
 20
687.1749807431539
 30
0.0000000000000844
 40
5.08
210
1.224646799147353E-16
220
6.123233995736766E-17
230
-1.0
100
AcDbArc
 50
90.0
 51
0.0
  0
LINE
  5
204
330
1F
100
AcDbEntity
  8
VISIBLE
100
AcDbLine
 10
345.6177066984857
 20
692.254980743154
 30
0.0
 11
345.6177066984857
 21
699.1129807431539
 31
0.0
  0
LINE
  5
205
330
1F
100
AcDbEntity
  8
VISIBLE
100
AcDbLine
 10
373.7211518862339
 20
699.1129807431539
 30
0.0
 11
345.6177066984857
 21
699.1129807431539
 31
0.0
  0
LINE
  5
206
330
1F
100
AcDbEntity
  8
VISIBLE
100
AcDbLine
 10
385.4706517930931
 20
669.6711310519204
 30
0.0
 11
373.7211518862339
 21
699.1129807431539
 31
0.0
  0
LINE
  5
207
330
1F
100
AcDbEntity
  8
VISIBLE
100
AcDbLine
 10
385.4706517930931
 20
669.6711310519204
 30
0.0
 11
379.1011285484913
 21
667.1292149170974
 31
0.0
  0
ARC
  5
208
330
1F
100
AcDbEntity
  8
VISIBLE
100
AcDbCircle
 10
-374.3829631821195
 20
665.2463140764874
 30
0.0000000000000866
 40
5.08
210
1.224646799147353E-16
220
6.123233995736766E-17
230
-1.0
100
AcDbArc
 50
248.2443040330226
 51
158.2443040330197
  0
LINE
  5
209
330
1F
100
AcDbEntity
  8
VISIBLE
100
AcDbLine
 10
376.2658640227293
 20
660.5281487101154
 30
0.0
 11
386.0153951422239
 21
636.0978127761924
 31
0.0
  0
ARC
  5
20A
330
1F
100
AcDbEntity
  8
VISIBLE
100
AcDbCircle
 10
-387.8982959828335
 20
631.3796474098204
 30
0.0000000000000862
 40
5.08
210
1.224646799147353E-16
220
6.123233995736766E-17
230
-1.0
100
AcDbArc
 50
158.2443040330223
 51
68.2443040330254
  0
LINE
  5
20B
330
1F
100
AcDbEntity
  8
VISIBLE
100
AcDbLine
 10
392.6164613492055
 20
633.2625482504304
 30
0.0
 11
398.9859845938076
 21
635.8044643852534
 31
0.0
  0
LINE
  5
20C
330
1F
100
AcDbEntity
  8
VISIBLE
100
AcDbLine
 10
412.5013173945218
 20
601.9377977185869
 30
0.0
 11
398.9859845938076
 21
635.8044643852534
 31
0.0
  0
LINE
  5
20D
330
1F
100
AcDbEntity
  8
VISIBLE
100
AcDbLine
 10
412.5013173945218
 20
601.9377977185869
 30
0.0
 11
406.13179414992
 21
599.3958815837639
 31
0.0
  0
ARC
  5
20E
330
1F
100
AcDbEntity
  8
VISIBLE
100
AcDbCircle
 10
-401.4136287835481
 20
597.5129807431539
 30
0.0000000000000858
 40
5.08
210
1.224646799147353E-16
220
6.123233995736766E-17
230
-1.0
100
AcDbArc
 50
248.2443040330203
 51
158.2443040330211
  0
LINE
  5
20F
330
1F
100
AcDbEntity
  8
VISIBLE
100
AcDbLine
 10
403.296529624158
 20
592.7948153767824
 30
0.0
 11
406.9474096375091
 21
583.6464548979619
 31
0.0
  0
LINE
  5
210
330
1F
100
AcDbEntity
  8
VISIBLE
100
AcDbLine
 10
406.9474096375091
 20
583.6464548979619
 30
0.0
 11
383.8283993422863
 21
574.4202407789744
 31
0.0
  0
LINE
  5
211
330
1F
100
AcDbEntity
  8
VISIBLE
100
AcDbLine
 10
383.8283993422863
 20
574.4202407789744
 30
0.0
 11
379.1682197617773
 21
586.097700060745
 31
0.0
  0
ARC
  5
212
330
1F
100
AcDbEntity
  8
VISIBLE
100
AcDbCircle
 10
-376.1014122736354
 20
584.8738145143484
 30
0.0000000000000819
 40
3.302
210
1.224646799147353E-16
220
6.123233995736766E-17
230
-1.0
100
AcDbArc
 50
338.2443040330198
 51
158.244304033022
  0
LINE
  5
213
330
1F
100
AcDbEntity
  8
VISIBLE
100
AcDbLine
 10
373.0346047854939
 20
583.6499289679518
 30
0.0
 11
377.6947843660035
 21
571.9724696861808
 31
0.0
  0
LINE
  5
214
330
1F
100
AcDbEntity
  8
VISIBLE
100
AcDbLine
 10
377.6947843660035
 20
571.9724696861808
 30
0.0
 11
371.5611693897201
 21
569.5246985933888
 31
0.0
  0
ARC
  5
215
330
1F
100
AcDbEntity
  8
VISIBLE
100
AcDbCircle
 10
-372.7850549361165
 20
566.457891105247
 30
0.0000000000000802
 40
3.302000000000055
210
1.224646799147353E-16
220
6.123233995736766E-17
230
-1.0
100
AcDbArc
 50
248.2443040330251
 51
68.24430403302324
  0
LINE
  5
216
330
1F
100
AcDbEntity
  8
VISIBLE
100
AcDbLine
 10
374.0089404825129
 20
563.3910836171049
 30
0.0
 11
380.1425554587963
 21
565.8388547098984
 31
0.0
  0
LINE
  5
217
330
1F
100
AcDbEntity
  8
VISIBLE
100
AcDbLine
 10
380.1425554587963
 20
565.8388547098984
 30
0.0
 11
384.8027350393053
 21
554.1613954281274
 31
0.0
  0
ARC
  5
218
330
1F
100
AcDbEntity
  8
VISIBLE
100
AcDbCircle
 10
-387.869542527447
 20
555.3852809745244
 30
0.0000000000000815
 40
3.302
210
1.224646799147353E-16
220
6.123233995736766E-17
230
-1.0
100
AcDbArc
 50
158.2443040330282
 51
338.2443040330114
  0
LINE
  5
219
330
1F
100
AcDbEntity
  8
VISIBLE
100
AcDbLine
 10
390.9363500155885
 20
556.6091665209204
 30
0.0
 11
386.2761704350795
 21
568.28662580269
 31
0.0
  0
LINE
  5
21A
330
1F
100
AcDbEntity
  8
VISIBLE
100
AcDbLine
 10
386.2761704350795
 20
568.28662580269
 30
0.0
 11
409.3951807303017
 21
577.512839921679
 31
0.0
  0
LINE
  5
21B
330
1F
100
AcDbEntity
  8
VISIBLE
100
AcDbLine
 10
409.3951807303017
 20
577.512839921679
 30
0.0
 11
413.0460607436527
 21
568.3644794428594
 31
0.0
  0
ARC
  5
21C
330
1F
100
AcDbEntity
  8
VISIBLE
100
AcDbCircle
 10
-414.9289615842624
 20
563.6463140764874
 30
0.0000000000000854
 40
5.08
210
1.224646799147353E-16
220
6.123233995736766E-17
230
-1.0
100
AcDbArc
 50
158.2443040330266
 51
68.24430403302433
  0
LINE
  5
21D
330
1F
100
AcDbEntity
  8
VISIBLE
100
AcDbLine
 10
419.6471269506342
 20
565.5292149170969
 30
0.0
 11
426.0166501952363
 21
568.0711310519204
 31
0.0
  0
LINE
  5
21E
330
1F
100
AcDbEntity
  8
VISIBLE
100
AcDbLine
 10
439.5319829959507
 20
534.2044643852539
 30
0.0
 11
426.0166501952363
 21
568.0711310519204
 31
0.0
  0
LINE
  5
21F
330
1F
100
AcDbEntity
  8
VISIBLE
100
AcDbLine
 10
439.5319829959507
 20
534.2044643852539
 30
0.0
 11
433.1624597513487
 21
531.6625482504305
 31
0.0
  0
ARC
  5
220
330
1F
100
AcDbEntity
  8
VISIBLE
100
AcDbCircle
 10
-428.4442943849768
 20
529.7796474098204
 30
0.0000000000000849
 40
5.08
210
1.224646799147353E-16
220
6.123233995736766E-17
230
-1.0
100
AcDbArc
 50
248.244304033022
 51
158.2443040330197
  0
LINE
  5
221
330
1F
100
AcDbEntity
  8
VISIBLE
100
AcDbLine
 10
430.3271952255867
 20
525.0614820434487
 30
0.0
 11
440.0767263450814
 21
500.6311461095259
 31
0.0
  0
ARC
  5
222
330
1F
100
AcDbEntity
  8
VISIBLE
100
AcDbCircle
 10
-441.9596271856912
 20
495.9129807431539
 30
0.0000000000000845
 40
5.08
210
1.224646799147353E-16
220
6.123233995736766E-17
230
-1.0
100
AcDbArc
 50
158.2443040330203
 51
68.24430403302314
  0
LINE
  5
223
330
1F
100
AcDbEntity
  8
VISIBLE
100
AcDbLine
 10
446.677792552063
 20
497.7958815837639
 30
0.0
 11
453.0473157966651
 21
500.3377977185871
 31
0.0
  0
LINE
  5
224
330
1F
100
AcDbEntity
  8
VISIBLE
100
AcDbLine
 10
466.5626485973795
 20
466.4711310519204
 30
0.0
 11
453.0473157966651
 21
500.3377977185871
 31
0.0
  0
LINE
  5
225
330
1F
100
AcDbEntity
  8
VISIBLE
100
AcDbLine
 10
466.5626485973795
 20
466.4711310519204
 30
0.0
 11
460.1931253527774
 21
463.9292149170971
 31
0.0
  0
ARC
  5
226
330
1F
100
AcDbEntity
  8
VISIBLE
100
AcDbCircle
 10
-455.4749599864056
 20
462.0463140764873
 30
0.0000000000000841
 40
5.08
210
1.224646799147353E-16
220
6.123233995736766E-17
230
-1.0
100
AcDbArc
 50
248.2443040330223
 51
158.2443040330231
  0
LINE
  5
227
330
1F
100
AcDbEntity
  8
VISIBLE
100
AcDbLine
 10
457.3578608270154
 20
457.3281487101155
 30
0.0
 11
461.0087408403664
 21
448.1797882312957
 31
0.0
  0
LINE
  5
228
330
1F
100
AcDbEntity
  8
VISIBLE
100
AcDbLine
 10
461.0087408403664
 20
448.1797882312957
 30
0.0
 11
437.8897305451443
 21
438.9535741123075
 31
0.0
  0
LINE
  5
229
330
1F
100
AcDbEntity
  8
VISIBLE
100
AcDbLine
 10
437.8897305451443
 20
438.9535741123075
 30
0.0
 11
433.229550964635
 21
450.6310333940777
 31
0.0
  0
ARC
  5
22A
330
1F
100
AcDbEntity
  8
VISIBLE
100
AcDbCircle
 10
-430.1627434764933
 20
449.4071478476813
 30
0.0000000000000802
 40
3.30200000000009
210
1.224646799147353E-16
220
6.123233995736766E-17
230
-1.0
100
AcDbArc
 50
338.2443040330223
 51
158.2443040330223
  0
LINE
  5
22B
330
1F
100
AcDbEntity
  8
VISIBLE
100
AcDbLine
 10
427.0959359883516
 20
448.1832623012849
 30
0.0
 11
431.7561155688609
 21
436.5058030195146
 31
0.0
  0
LINE
  5
22C
330
1F
100
AcDbEntity
  8
VISIBLE
100
AcDbLine
 10
431.7561155688609
 20
436.5058030195146
 30
0.0
 11
425.6225005925775
 21
434.0580319267219
 31
0.0
  0
ARC
  5
22D
330
1F
100
AcDbEntity
  8
VISIBLE
100
AcDbCircle
 10
-426.8463861389739
 20
430.9912244385802
 30
0.0000000000000785
 40
3.302
210
1.224646799147353E-16
220
6.123233995736766E-17
230
-1.0
100
AcDbArc
 50
248.2443040330229
 51
68.24430403302196
  0
LINE
  5
22E
330
1F
100
AcDbEntity
  8
VISIBLE
100
AcDbLine
 10
434.2038866616538
 20
430.3721880432312
 30
0.0
 11
428.0702716853703
 21
427.9244169504385
 31
0.0
  0
LINE
  5
22F
330
1F
100
AcDbEntity
  8
VISIBLE
100
AcDbLine
 10
438.8640662421629
 20
418.6947287614609
 30
0.0
 11
434.2038866616538
 21
430.3721880432312
 31
0.0
  0
ARC
  5
230
330
1F
100
AcDbEntity
  8
VISIBLE
100
AcDbCircle
 10
-441.9308737303048
 20
419.9186143078573
 30
0.0000000000000798
 40
3.30200000000011
210
1.224646799147353E-16
220
6.123233995736766E-17
230
-1.0
100
AcDbArc
 50
158.2443040330227
 51
338.2443040330227
  0
LINE
  5
231
330
1F
100
AcDbEntity
  8
VISIBLE
100
AcDbLine
 10
440.3375016379372
 20
432.819959136024
 30
0.0
 11
444.9976812184466
 21
421.1424998542537
 31
0.0
  0
LINE
  5
232
330
1F
100
AcDbEntity
  8
VISIBLE
100
AcDbLine
 10
463.4565119331592
 20
442.0461732550122
 30
0.0
 11
440.3375016379372
 21
432.819959136024
 31
0.0
  0
LINE
  5
233
330
1F
100
AcDbEntity
  8
VISIBLE
100
AcDbLine
 10
463.4565119331592
 20
442.0461732550122
 30
0.0
 11
467.1073919465101
 21
432.8978127761924
 31
0.0
  0
ARC
  5
234
330
1F
100
AcDbEntity
  8
VISIBLE
100
AcDbCircle
 10
-468.9902927871199
 20
428.1796474098205
 30
0.0000000000000837
 40
5.08
210
1.224646799147353E-16
220
6.123233995736766E-17
230
-1.0
100
AcDbArc
 50
158.2443040330226
 51
68.24430403302374
  0
LINE
  5
235
330
1F
100
AcDbEntity
  8
VISIBLE
100
AcDbLine
 10
473.7084581534917
 20
430.0625482504304
 30
0.0
 11
480.0779813980939
 21
432.6044643852537
 31
0.0
  0
LINE
  5
236
330
1F
100
AcDbEntity
  8
VISIBLE
100
AcDbLine
 10
493.7233478789239
 20
398.4119598450511
 30
0.0
 11
480.0779813980939
 21
432.6044643852537
 31
0.0
  0
LINE
  5
237
330
1F
100
AcDbEntity
  8
VISIBLE
100
AcDbLine
 10
483.452142503186
 20
394.312980743154
 30
0.0
 11
493.7233478789239
 21
398.4119598450511
 31
0.0
  0
LINE
  5
238
330
1F
100
AcDbEntity
  8
VISIBLE
100
AcDbLine
 10
50.34646510392798
 20
394.312980743154
 30
0.0
 11
483.452142503186
 21
394.312980743154
 31
0.0
  0
LINE
  5
239
330
1F
100
AcDbEntity
  8
VISIBLE
100
AcDbLine
 10
41.39251717728445
 20
399.6936338043785
 30
0.0
 11
50.34646510392798
 21
394.312980743154
 31
0.0
  0
LINE
  5
23A
330
1F
100
AcDbEntity
  8
VISIBLE
100
AcDbLine
 10
62.20557619671104
 20
434.3286575707476
 30
0.0
 11
41.39251717728445
 21
399.6936338043785
 31
0.0
  0
LINE
  5
23B
330
1F
100
AcDbEntity
  8
VISIBLE
100
AcDbLine
 10
68.08386191099697
 20
430.7962474783001
 30
0.0
 11
62.20557619671104
 21
434.3286575707476
 31
0.0
  0
ARC
  5
23C
330
1F
100
AcDbEntity
  8
VISIBLE
100
AcDbCircle
 10
-72.43814762528245
 20
428.1796474098205
 30
0.0000000000000351
 40
5.08
210
1.224646799147353E-16
220
6.123233995736766E-17
230
-1.0
100
AcDbArc
 50
121.0027191338732
 51
31.00271913387522
  0
LINE
  5
23D
330
1F
100
AcDbEntity
  8
VISIBLE
100
AcDbLine
 10
80.91302451374696
 20
442.2826950288683
 30
0.0
 11
75.05474769376195
 21
432.5339331241062
 31
0.0
  0
LINE
  5
23E
330
1F
100
AcDbEntity
  8
VISIBLE
100
AcDbLine
 10
80.91302451374696
 20
442.2826950288683
 30
0.0
 11
102.2490245137469
 21
429.4613546933181
 31
0.0
  0
LINE
  5
23F
330
1F
100
AcDbEntity
  8
VISIBLE
100
AcDbLine
 10
102.2490245137469
 20
429.4613546933181
 30
0.0
 11
95.77293934425944
 21
418.6844975504614
 31
0.0
  0
ARC
  5
240
330
1F
100
AcDbEntity
  8
VISIBLE
100
AcDbCircle
 10
-98.603225058546
 20
416.9837075059493
 30
0.0000000000000375
 40
3.30200000000084
210
1.224646799147353E-16
220
6.123233995736766E-17
230
-1.0
100
AcDbArc
 50
211.0027191338746
 51
31.00271913387236
  0
LINE
  5
241
330
1F
100
AcDbEntity
  8
VISIBLE
100
AcDbLine
 10
101.4335107728324
 20
415.2829174614371
 30
0.0
 11
107.9095959423184
 21
426.0597746042946
 31
0.0
  0
LINE
  5
242
330
1F
100
AcDbEntity
  8
VISIBLE
100
AcDbLine
 10
107.9095959423184
 20
426.0597746042946
 30
0.0
 11
113.57016737089
 21
422.6581945152712
 31
0.0
  0
ARC
  5
243
330
1F
100
AcDbEntity
  8
VISIBLE
100
AcDbCircle
 10
-115.2709574154014
 20
425.488480229557
 30
0.0000000000000402
 40
3.302000000000055
210
1.224646799147353E-16
220
6.123233995736766E-17
230
-1.0
100
AcDbArc
 50
121.0027191338774
 51
301.0027191338683
  0
LINE
  5
244
330
1F
100
AcDbEntity
  8
VISIBLE
100
AcDbLine
 10
111.311176031342
 20
431.7203460328661
 30
0.0
 11
116.9717474599134
 21
428.3187659438428
 31
0.0
  0
LINE
  5
245
330
1F
100
AcDbEntity
  8
VISIBLE
100
AcDbLine
 10
117.787261200829
 20
442.4972031757233
 30
0.0
 11
111.311176031342
 21
431.7203460328661
 31
0.0
  0
ARC
  5
246
330
1F
100
AcDbEntity
  8
VISIBLE
100
AcDbCircle
 10
-114.9569754865435
 20
444.197993220235
 30
0.0000000000000414
 40
3.30200000000006
210
1.224646799147353E-16
220
6.123233995736766E-17
230
-1.0
100
AcDbArc
 50
31.00271913387119
 51
211.0027191338758
  0
LINE
  5
247
330
1F
100
AcDbEntity
  8
VISIBLE
100
AcDbLine
 10
105.6506046027704
 20
435.1219261218898
 30
0.0
 11
112.1266897722575
 21
445.8987832647467
 31
0.0
  0
LINE
  5
248
330
1F
100
AcDbEntity
  8
VISIBLE
100
AcDbLine
 10
84.31460460277043
 20
447.9432664574396
 30
0.0
 11
105.6506046027704
 21
435.1219261218898
 31
0.0
  0
LINE
  5
249
330
1F
100
AcDbEntity
  8
VISIBLE
100
AcDbLine
 10
90.1728814227555
 20
457.6920283622015
 30
0.0
 11
84.31460460277043
 21
447.9432664574396
 31
0.0
  0
ARC
  5
24A
330
1F
100
AcDbEntity
  8
VISIBLE
100
AcDbCircle
 10
-92.78948149123494
 20
462.0463140764872
 30
0.0000000000000397
 40
5.08
210
1.224646799147353E-16
220
6.123233995736766E-17
230
-1.0
100
AcDbArc
 50
31.00271913387219
 51
301.0027191338729
  0
LINE
  5
24B
330
1F
100
AcDbEntity
  8
VISIBLE
100
AcDbLine
 10
82.55691006266346
 20
468.1953242374145
 30
0.0
 11
88.43519577694894
 21
464.6629141449668
 31
0.0
  0
LINE
  5
24C
330
1F
100
AcDbEntity
  8
VISIBLE
100
AcDbLine
 10
102.9082439286154
 20
502.0619909040809
 30
0.0
 11
82.55691006266346
 21
468.1953242374145
 31
0.0
  0
LINE
  5
24D
330
1F
100
AcDbEntity
  8
VISIBLE
100
AcDbLine
 10
108.7865296429015
 20
498.5295808116333
 30
0.0
 11
102.9082439286154
 21
502.0619909040809
 31
0.0
  0
ARC
  5
24E
330
1F
100
AcDbEntity
  8
VISIBLE
100
AcDbCircle
 10
-113.140815357187
 20
495.9129807431539
 30
0.0000000000000442
 40
5.08
210
1.224646799147353E-16
220
6.123233995736766E-17
230
-1.0
100
AcDbArc
 50
121.0027191338788
 51
31.00271913387442
  0
LINE
  5
24F
330
1F
100
AcDbEntity
  8
VISIBLE
100
AcDbLine
 10
130.87554915466
 20
525.4253616955349
 30
0.0
 11
115.757415425667
 21
500.2672664574395
 31
0.0
  0
ARC
  5
250
330
1F
100
AcDbEntity
  8
VISIBLE
100
AcDbCircle
 10
-133.4921492231394
 20
529.7796474098204
 30
0.0000000000000488
 40
5.08
210
1.224646799147353E-16
220
6.123233995736766E-17
230
-1.0
100
AcDbArc
 50
31.00271913387362
 51
301.0027191338747
  0
LINE
  5
251
330
1F
100
AcDbEntity
  8
VISIBLE
100
AcDbLine
 10
123.259577794568
 20
535.9286575707479
 30
0.0
 11
129.1378635088535
 21
532.3962474783001
 31
0.0
  0
LINE
  5
252
330
1F
100
AcDbEntity
  8
VISIBLE
100
AcDbLine
 10
143.6109116605199
 20
569.7953242374144
 30
0.0
 11
123.259577794568
 21
535.9286575707479
 31
0.0
  0
LINE
  5
253
330
1F
100
AcDbEntity
  8
VISIBLE
100
AcDbLine
 10
149.489197374806
 20
566.2629141449669
 30
0.0
 11
143.6109116605199
 21
569.7953242374144
 31
0.0
  0
ARC
  5
254
330
1F
100
AcDbEntity
  8
VISIBLE
100
AcDbCircle
 10
-153.843483089092
 20
563.6463140764874
 30
0.0000000000000534
 40
5.08
210
1.224646799147353E-16
220
6.123233995736766E-17
230
-1.0
100
AcDbArc
 50
121.0027191338749
 51
31.00271913387076
  0
LINE
  5
255
330
1F
100
AcDbEntity
  8
VISIBLE
100
AcDbLine
 10
162.318359977556
 20
577.7493616955348
 30
0.0
 11
156.4600831575715
 21
568.0005997907729
 31
0.0
  0
LINE
  5
256
330
1F
100
AcDbEntity
  8
VISIBLE
100
AcDbLine
 10
162.318359977556
 20
577.7493616955348
 30
0.0
 11
183.654359977556
 21
564.9280213599849
 31
0.0
  0
LINE
  5
257
330
1F
100
AcDbEntity
  8
VISIBLE
100
AcDbLine
 10
183.654359977556
 20
564.9280213599849
 30
0.0
 11
177.1782748080694
 21
554.1511642171279
 31
0.0
  0
ARC
  5
258
330
1F
100
AcDbEntity
  8
VISIBLE
100
AcDbCircle
 10
-180.008560522355
 20
552.4503741726164
 30
0.0000000000000558
 40
3.302000000000355
210
1.224646799147353E-16
220
6.123233995736766E-17
230
-1.0
100
AcDbArc
 50
211.0027191338878
 51
31.00271913387169
  0
LINE
  5
259
330
1F
100
AcDbEntity
  8
VISIBLE
100
AcDbLine
 10
182.8388462366405
 20
550.7495841281038
 30
0.0
 11
189.314931406127
 21
561.526441270961
 31
0.0
  0
LINE
  5
25A
330
1F
100
AcDbEntity
  8
VISIBLE
100
AcDbLine
 10
189.314931406127
 20
561.526441270961
 30
0.0
 11
194.975502834699
 21
558.124861181938
 31
0.0
  0
ARC
  5
25B
330
1F
100
AcDbEntity
  8
VISIBLE
100
AcDbCircle
 10
-196.6762928792105
 20
560.9551468962238
 30
0.0000000000000584
 40
3.302
210
1.224646799147353E-16
220
6.123233995736766E-17
230
-1.0
100
AcDbArc
 50
121.0027191338799
 51
301.0027191338688
  0
LINE
  5
25C
330
1F
100
AcDbEntity
  8
VISIBLE
100
AcDbLine
 10
192.716511495151
 20
567.1870126995329
 30
0.0
 11
198.3770829237225
 21
563.7854326105094
 31
0.0
  0
LINE
  5
25D
330
1F
100
AcDbEntity
  8
VISIBLE
100
AcDbLine
 10
199.1925966646385
 20
577.96386984239
 30
0.0
 11
192.716511495151
 21
567.1870126995329
 31
0.0
  0
ARC
  5
25E
330
1F
100
AcDbEntity
  8
VISIBLE
100
AcDbCircle
 10
-196.3623109503525
 20
579.664659886902
 30
0.0000000000000596
 40
3.302000000000325
210
1.224646799147353E-16
220
6.123233995736766E-17
230
-1.0
100
AcDbArc
 50
31.0027191338788
 51
211.0027191338764
  0
LINE
  5
25F
330
1F
100
AcDbEntity
  8
VISIBLE
100
AcDbLine
 10
187.0559400665799
 20
570.5885927885564
 30
0.0
 11
193.532025236067
 21
581.3654499314139
 31
0.0
  0
LINE
  5
260
330
1F
100
AcDbEntity
  8
VISIBLE
100
AcDbLine
 10
165.7199400665795
 20
583.4099331241064
 30
0.0
 11
187.0559400665799
 21
570.5885927885564
 31
0.0
  0
LINE
  5
261
330
1F
100
AcDbEntity
  8
VISIBLE
100
AcDbLine
 10
171.5782168865644
 20
593.1586950288679
 30
0.0
 11
165.7199400665795
 21
583.4099331241064
 31
0.0
  0
ARC
  5
262
330
1F
100
AcDbEntity
  8
VISIBLE
100
AcDbCircle
 10
-174.194816955044
 20
597.5129807431539
 30
0.0000000000000579
 40
5.08
210
1.224646799147353E-16
220
6.123233995736766E-17
230
-1.0
100
AcDbArc
 50
31.00271913387522
 51
301.0027191338723
  0
LINE
  5
263
330
1F
100
AcDbEntity
  8
VISIBLE
100
AcDbLine
 10
163.9622455264725
 20
603.661990904081
 30
0.0
 11
169.8405312407585
 21
600.1295808116333
 31
0.0
  0
LINE
  5
264
330
1F
100
AcDbEntity
  8
VISIBLE
100
AcDbLine
 10
184.3135793924245
 20
637.5286575707479
 30
0.0
 11
163.9622455264725
 21
603.661990904081
 31
0.0
  0
LINE
  5
265
330
1F
100
AcDbEntity
  8
VISIBLE
100
AcDbLine
 10
190.191865106711
 20
633.9962474783003
 30
0.0
 11
184.3135793924245
 21
637.5286575707479
 31
0.0
  0
ARC
  5
266
330
1F
100
AcDbEntity
  8
VISIBLE
100
AcDbCircle
 10
-194.5461508209964
 20
631.3796474098204
 30
0.0000000000000625
 40
5.08
210
1.224646799147353E-16
220
6.123233995736766E-17
230
-1.0
100
AcDbArc
 50
121.0027191338727
 51
31.00271913387823
  0
LINE
  5
267
330
1F
100
AcDbEntity
  8
VISIBLE
100
AcDbLine
 10
212.2808846184689
 20
660.8920283622019
 30
0.0
 11
197.162750889476
 21
635.7339331241064
 31
0.0
  0
ARC
  5
268
330
1F
100
AcDbEntity
  8
VISIBLE
100
AcDbCircle
 10
-214.897484686949
 20
665.2463140764874
 30
0.0000000000000671
 40
5.08
210
1.224646799147353E-16
220
6.123233995736766E-17
230
-1.0
100
AcDbArc
 50
31.00271913387362
 51
301.0027191338799
  0
LINE
  5
269
330
1F
100
AcDbEntity
  8
VISIBLE
100
AcDbLine
 10
204.664913258377
 20
671.3953242374145
 30
0.0
 11
210.543198972663
 21
667.8629141449669
 31
0.0
  0
LINE
  5
26A
330
1F
100
AcDbEntity
  8
VISIBLE
100
AcDbLine
 10
221.321151886234
 20
699.1129807431539
 30
0.0
 11
204.664913258377
 21
671.3953242374145
 31
0.0
  0
LINE
  5
26B
330
1F
100
AcDbEntity
  8
VISIBLE
100
AcDbLine
 10
247.0149066984855
 20
699.1129807431539
 30
0.0
 11
221.321151886234
 21
699.1129807431539
 31
0.0
  0
LINE
  5
26C
330
1F
100
AcDbEntity
  8
VISIBLE
100
AcDbLine
 10
247.0149066984855
 20
692.254980743154
 30
0.0
 11
247.0149066984855
 21
699.1129807431539
 31
0.0
  0
ARC
  5
26D
330
1F
100
AcDbEntity
  8
VISIBLE
100
AcDbCircle
 10
-247.0149066984855
 20
687.1749807431539
 30
0.0000000000000723
 40
5.08
210
1.224646799147353E-16
220
6.123233995736766E-17
230
-1.0
100
AcDbArc
 50
180.0
 51
90.0
  0
LINE
  5
26E
330
1F
100
AcDbEntity
  8
VISIBLE
100
AcDbLine
 10
260.1467066984854
 20
687.1749807431539
 30
0.0
 11
252.094906698486
 21
687.1749807431539
 31
0.0
  0
LINE
  5
26F
330
1F
100
AcDbEntity
  8
VISIBLE
100
AcDbLine
 10
260.1467066984854
 20
687.1749807431539
 30
0.0
 11
260.1467066984854
 21
662.2829807431539
 31
0.0
  0
LINE
  5
270
330
1F
100
AcDbEntity
  8
VISIBLE
100
AcDbLine
 10
260.1467066984854
 20
662.2829807431539
 30
0.0
 11
247.5737066984855
 21
662.2829807431539
 31
0.0
  0
ARC
  5
271
330
1F
100
AcDbEntity
  8
VISIBLE
100
AcDbCircle
 10
247.5737066984855
 20
658.9809807431539
 30
0.0000000000000001
 40
3.302
100
AcDbArc
 50
90.0
 51
270.0
  0
LINE
  5
272
330
1F
100
AcDbEntity
  8
VISIBLE
100
AcDbLine
 10
247.5737066984855
 20
655.6789807431539
 30
0.0
 11
260.1467066984854
 21
655.6789807431539
 31
0.0
  0
LINE
  5
273
330
1F
100
AcDbEntity
  8
VISIBLE
100
AcDbLine
 10
260.1467066984854
 20
655.6789807431539
 30
0.0
 11
260.1467066984854
 21
649.0749807431539
 31
0.0
  0
ARC
  5
274
330
1F
100
AcDbEntity
  8
VISIBLE
100
AcDbCircle
 10
263.4487066984855
 20
649.0749807431539
 30
0.0
 40
3.302
100
AcDbArc
 50
179.999999999998
 51
0.0000000000019728
  0
LINE
  5
275
330
1F
100
AcDbEntity
  8
VISIBLE
100
AcDbLine
 10
266.750706698486
 20
655.6789807431539
 30
0.0
 11
266.7507066984855
 21
649.0749807431539
 31
0.0
  0
LINE
  5
276
330
1F
100
AcDbEntity
  8
VISIBLE
100
AcDbLine
 10
279.323706698486
 20
655.6789807431539
 30
0.0
 11
266.750706698486
 21
655.6789807431539
 31
0.0
  0
ARC
  5
277
330
1F
100
AcDbEntity
  8
VISIBLE
100
AcDbCircle
 10
279.323706698486
 20
658.9809807431539
 30
-0.0000000000000001
 40
3.302
100
AcDbArc
 50
270.0
 51
90.00000000000887
  0
LINE
  5
278
330
1F
100
AcDbEntity
  8
VISIBLE
100
AcDbLine
 10
266.750706698486
 20
662.2829807431539
 30
0.0
 11
279.3237066984855
 21
662.2829807431539
 31
0.0
  0
LINE
  5
279
330
1F
100
AcDbEntity
  8
VISIBLE
100
AcDbLine
 10
266.750706698486
 20
687.1749807431539
 30
0.0
 11
266.750706698486
 21
662.2829807431539
 31
0.0
  0
LINE
  5
27A
330
1F
100
AcDbEntity
  8
VISIBLE
100
AcDbLine
 10
274.8025066984854
 20
687.1749807431539
 30
0.0
 11
266.750706698486
 21
687.1749807431539
 31
0.0
  0
ARC
  5
27B
330
1F
100
AcDbEntity
  8
VISIBLE
100
AcDbCircle
 10
-279.8825066984855
 20
687.1749807431539
 30
0.0000000000000764
 40
5.08
210
1.224646799147353E-16
220
6.123233995736766E-17
230
-1.0
100
AcDbArc
 50
90.0
 51
0.0
  0
LINE
  5
27C
330
1F
100
AcDbEntity
  8
VISIBLE
100
AcDbLine
 10
279.8825066984855
 20
699.1129807431539
 30
0.0
 11
279.8825066984855
 21
692.254980743154
 31
0.0
  0
LINE
  5
27D
330
1F
100
AcDbEntity
  8
VISIBLE
100
AcDbLine
 10
312.7501066984855
 20
699.1129807431539
 30
0.0
 11
279.8825066984855
 21
699.1129807431539
 31
0.0
  0
LINE
  5
27E
330
1F
100
AcDbEntity
  8
VISIBLE
100
AcDbLine
 10
312.7501066984855
 20
699.1129807431539
 30
0.0
 11
312.7501066984855
 21
692.254980743154
 31
0.0
  0
ARC
  5
27F
330
1F
100
AcDbEntity
  8
VISIBLE
100
AcDbCircle
 10
-312.7501066984855
 20
687.1749807431539
 30
0.0000000000000804
 40
5.08
210
1.224646799147353E-16
220
6.123233995736766E-17
230
-1.0
100
AcDbArc
 50
180.0
 51
90.0
  0
LINE
  5
280
330
1F
100
AcDbEntity
  8
VISIBLE
100
AcDbLine
 10
325.8819066984855
 20
687.1749807431539
 30
0.0
 11
317.8301066984855
 21
687.1749807431539
 31
0.0
  0
LINE
  5
281
330
1F
100
AcDbEntity
  8
VISIBLE
100
AcDbLine
 10
325.8819066984855
 20
687.1749807431539
 30
0.0
 11
325.8819066984855
 21
662.2829807431539
 31
0.0
  0
CIRCLE
  5
282
330
1F
100
AcDbEntity
  8
VISIBLE
100
AcDbCircle
 10
-179.5807696023055
 20
617.3245741518149
 30
0.0000000000000598
 40
3.175
210
1.224646799147353E-16
220
6.123233995736766E-17
230
-1.0
  0
CIRCLE
  5
283
330
1F
100
AcDbEntity
  8
VISIBLE
100
AcDbCircle
 10
-98.17543413849643
 20
481.8579074851485
 30
0.0000000000000415
 40
3.175
210
1.224646799147353E-16
220
6.123233995736766E-17
230
-1.0
  0
CIRCLE
  5
284
330
1F
100
AcDbEntity
  8
VISIBLE
100
AcDbCircle
 10
-453.9072754890575
 20
481.0508383344915
 30
0.000000000000085
 40
3.175
210
1.224646799147353E-16
220
6.123233995736766E-17
230
-1.0
  0
CIRCLE
  5
285
330
1F
100
AcDbEntity
  8
VISIBLE
100
AcDbCircle
 10
-399.8459442861999
 20
616.5175050011579
 30
0.0000000000000867
 40
3.175
210
1.224646799147353E-16
220
6.123233995736766E-17
230
-1.0
  0
CIRCLE
  5
286
330
1F
100
AcDbEntity
  8
VISIBLE
100
AcDbCircle
 10
-359.6694292923599
 20
692.7629807431539
 30
0.0000000000000865
 40
3.175
210
1.224646799147353E-16
220
6.123233995736766E-17
230
-1.0
  0
ENDSEC
  0
SECTION
  2
OBJECTS
  0
DICTIONARY
  5
C
330
0
100
AcDbDictionary
  3
ACAD_GROUP
350
D
  3
ACAD_LAYOUT
350
1A
  3
ACAD_MATERIAL
350
43
  3
ACAD_MLEADERSTYLE
350
28C
  3
ACAD_MLINESTYLE
350
17
  3
ACAD_PLOTSETTINGS
350
19
  3
ACAD_SCALELIST
350
47
  3
ACAD_VISUALSTYLE
350
2A
  3
ACDBVARIABLEDICTIONARY
350
6C
  3
ONSHAPE_DATA
350
287
1001
ACAD
1000
TREAT_AS_HARD
1070
     0
  0
DICTIONARY
  5
D
102
{ACAD_REACTORS
330
C
102
}
330
C
100
AcDbDictionary
1001
ACAD
1000
TREAT_AS_HARD
1070
     0
  0
DICTIONARY
  5
1A
102
{ACAD_REACTORS
330
C
102
}
330
C
100
AcDbDictionary
1001
ACAD
1000
TREAT_AS_HARD
1070
     0
  0
DICTIONARY
  5
43
102
{ACAD_REACTORS
330
C
102
}
330
C
100
AcDbDictionary
  3
BYBLOCK
350
45
  3
BYLAYER
350
44
  3
GLOBAL
350
46
1001
ACAD
1000
TREAT_AS_HARD
1070
     0
  0
DICTIONARY
  5
28C
102
{ACAD_REACTORS
330
C
102
}
330
C
100
AcDbDictionary
1001
ACAD
1000
TREAT_AS_HARD
1070
     0
  0
DICTIONARY
  5
17
102
{ACAD_REACTORS
330
C
102
}
330
C
100
AcDbDictionary
  3
STANDARD
350
18
1001
ACAD
1000
TREAT_AS_HARD
1070
     0
  0
DICTIONARY
  5
19
102
{ACAD_REACTORS
330
C
102
}
330
C
100
AcDbDictionary
1001
ACAD
1000
TREAT_AS_HARD
1070
     0
  0
DICTIONARY
  5
47
102
{ACAD_REACTORS
330
C
102
}
330
C
100
AcDbDictionary
  3
A0
350
48
  3
A1
350
49
  3
A2
350
4A
  3
A3
350
4B
  3
A4
350
4C
  3
A5
350
4D
  3
A6
350
4E
  3
A7
350
4F
  3
A8
350
50
  3
A9
350
51
  3
B0
350
52
  3
B1
350
53
  3
B2
350
54
  3
B3
350
55
  3
B4
350
56
  3
B5
350
57
  3
B6
350
58
  3
B7
350
59
  3
B8
350
5A
  3
B9
350
5B
  3
C0
350
5C
  3
C1
350
5D
  3
C2
350
5E
  3
C3
350
5F
  3
C4
350
60
  3
C5
350
61
  3
C6
350
62
  3
C7
350
63
  3
C8
350
64
  3
C9
350
65
  3
D0
350
66
  3
D1
350
67
  3
D2
350
68
1001
ACAD
1000
TREAT_AS_HARD
1070
     0
  0
DICTIONARY
  5
2A
102
{ACAD_REACTORS
330
C
102
}
330
C
100
AcDbDictionary
  3
2DWIREFRAME
350
2F
  3
BASIC
350
32
  3
BRIGHTEN
350
36
  3
COLORCHANGE
350
3A
  3
CONCEPTUAL
350
34
  3
DIM
350
35
  3
EDGECOLOROFF
350
3D
  3
FACEPATTERN
350
39
  3
FLAT
350
2B
  3
FLATWITHEDGES
350
2C
  3
GOURAUD
350
2D
  3
GOURAUDWITHEDGES
350
2E
  3
HIDDEN
350
31
  3
JITTEROFF
350
3B
  3
LINEPATTERN
350
38
  3
OVERHANGOFF
350
3C
  3
REALISTIC
350
33
  3
SHADED
350
42
  3
SHADED_WITH_EDGES
350
41
  3
SHADES_OF_GRAY
350
3E
  3
SKETCHY
350
3F
  3
THICKEN
350
37
  3
WIREFRAME
350
30
  3
X-RAY
350
40
1001
ACAD
1000
TREAT_AS_HARD
1070
     0
  0
DICTIONARY
  5
6C
102
{ACAD_REACTORS
330
C
102
}
330
C
100
AcDbDictionary
  3
CANNOSCALE
350
293
  3
CTABLESTYLE
350
28B
  3
DIMASSOC
350
291
  3
HIDETEXT
350
292
  3
MSLTSCALE
350
294
  3
OLEFRAME
350
6D
  3
PSOLHEIGHT
350
28E
  3
PSOLWIDTH
350
28D
1001
ACAD
1000
TREAT_AS_HARD
1070
     0
  0
DICTIONARY
  5
287
102
{ACAD_REACTORS
330
C
102
}
330
C
100
AcDbDictionary
  3
DIM_UNITS
360
288
  3
ONSHAPE_VSHARP_EXTENSION
360
28A
  3
ONSHAPE_WELD_STANDARD
360
289
1001
ACAD
1000
TREAT_AS_HARD
1070
     1
  0
MATERIAL
  5
45
102
{ACAD_REACTORS
330
43
102
}
102
{ACAD_XDICTIONARY
360
297
102
}
330
43
100
AcDbMaterial
  1
BYBLOCK
  0
MATERIAL
  5
44
102
{ACAD_REACTORS
330
43
102
}
102
{ACAD_XDICTIONARY
360
295
102
}
330
43
100
AcDbMaterial
  1
BYLAYER
  0
MATERIAL
  5
46
102
{ACAD_REACTORS
330
43
102
}
102
{ACAD_XDICTIONARY
360
299
102
}
330
43
100
AcDbMaterial
  1
GLOBAL
  0
MLINESTYLE
  5
18
102
{ACAD_REACTORS
330
17
102
}
330
17
100
AcDbMlineStyle
  2
Standard
 70
     0
  3

 62
   256
 51
90.0
 52
90.0
 71
     2
 49
0.5
 62
   256
  6
BYLAYER
 49
-0.5
 62
   256
  6
BYLAYER
  0
ACAD_PROXY_OBJECT
  5
48
102
{ACAD_REACTORS
330
47
102
}
330
47
100
AcDbZombieObject
 90
      499
 91
      503
 93
       41
310
903313A31580
  0
ACAD_PROXY_OBJECT
  5
49
102
{ACAD_REACTORS
330
47
102
}
330
47
100
AcDbZombieObject
 90
      499
 91
      503
 93
      105
310
903313A324000000000000004000
  0
ACAD_PROXY_OBJECT
  5
4A
102
{ACAD_REACTORS
330
47
102
}
330
47
100
AcDbZombieObject
 90
      499
 91
      503
 93
      105
310
903313A344000000000000104000
  0
ACAD_PROXY_OBJECT
  5
4B
102
{ACAD_REACTORS
330
47
102
}
330
47
100
AcDbZombieObject
 90
      499
 91
      503
 93
      105
310
903313A354000000000000144000
  0
ACAD_PROXY_OBJECT
  5
4C
102
{ACAD_REACTORS
330
47
102
}
330
47
100
AcDbZombieObject
 90
      499
 91
      503
 93
      105
310
903313A384000000000000204000
  0
ACAD_PROXY_OBJECT
  5
4D
102
{ACAD_REACTORS
330
47
102
}
330
47
100
AcDbZombieObject
 90
      499
 91
      503
 93
      113
310
904313A31304000000000000244000
  0
ACAD_PROXY_OBJECT
  5
4E
102
{ACAD_REACTORS
330
47
102
}
330
47
100
AcDbZombieObject
 90
      499
 91
      503
 93
      113
310
904313A31364000000000000304000
  0
ACAD_PROXY_OBJECT
  5
4F
102
{ACAD_REACTORS
330
47
102
}
330
47
100
AcDbZombieObject
 90
      499
 91
      503
 93
      113
310
904313A32304000000000000344000
  0
ACAD_PROXY_OBJECT
  5
50
102
{ACAD_REACTORS
330
47
102
}
330
47
100
AcDbZombieObject
 90
      499
 91
      503
 93
      113
310
904313A333040000000000003E4000
  0
ACAD_PROXY_OBJECT
  5
51
102
{ACAD_REACTORS
330
47
102
}
330
47
100
AcDbZombieObject
 90
      499
 91
      503
 93
      113
310
904313A34304000000000000444000
  0
ACAD_PROXY_OBJECT
  5
52
102
{ACAD_REACTORS
330
47
102
}
330
47
100
AcDbZombieObject
 90
      499
 91
      503
 93
      113
310
904313A35304000000000000494000
  0
ACAD_PROXY_OBJECT
  5
53
102
{ACAD_REACTORS
330
47
102
}
330
47
100
AcDbZombieObject
 90
      499
 91
      503
 93
      121
310
905313A3130304000000000000594000
  0
ACAD_PROXY_OBJECT
  5
54
102
{ACAD_REACTORS
330
47
102
}
330
47
100
AcDbZombieObject
 90
      499
 91
      503
 93
      105
310
903323A310000000000000010100
  0
ACAD_PROXY_OBJECT
  5
55
102
{ACAD_REACTORS
330
47
102
}
330
47
100
AcDbZombieObject
 90
      499
 91
      503
 93
      105
310
903343A310000000000000410100
  0
ACAD_PROXY_OBJECT
  5
56
102
{ACAD_REACTORS
330
47
102
}
330
47
100
AcDbZombieObject
 90
      499
 91
      503
 93
      105
310
903383A310000000000000810100
  0
ACAD_PROXY_OBJECT
  5
57
102
{ACAD_REACTORS
330
47
102
}
330
47
100
AcDbZombieObject
 90
      499
 91
      503
 93
      113
310
90431303A310000000000000910100
  0
ACAD_PROXY_OBJECT
  5
58
102
{ACAD_REACTORS
330
47
102
}
330
47
100
AcDbZombieObject
 90
      499
 91
      503
 93
      121
310
9053130303A310000000000001650100
  0
ACAD_PROXY_OBJECT
  5
59
102
{ACAD_REACTORS
330
47
102
}
330
47
100
AcDbZombieObject
 90
      499
 91
      503
 93
      257
310
90E312F31323822203D2031272D3022000000000000200FC000000000000284000
  0
ACAD_PROXY_OBJECT
  5
5A
102
{ACAD_REACTORS
330
47
102
}
330
47
100
AcDbZombieObject
 90
      499
 91
      503
 93
      249
310
90D312F363422203D2031272D3022000000000000240FC000000000000284000
  0
ACAD_PROXY_OBJECT
  5
5B
102
{ACAD_REACTORS
330
47
102
}
330
47
100
AcDbZombieObject
 90
      499
 91
      503
 93
      249
310
90D312F333222203D2031272D3022000000000000280FC000000000000284000
  0
ACAD_PROXY_OBJECT
  5
5C
102
{ACAD_REACTORS
330
47
102
}
330
47
100
AcDbZombieObject
 90
      499
 91
      503
 93
      249
310
90D312F313622203D2031272D30220000000000002C0FC000000000000284000
  0
ACAD_PROXY_OBJECT
  5
5D
102
{ACAD_REACTORS
330
47
102
}
330
47
100
AcDbZombieObject
 90
      499
 91
      503
 93
      249
310
90D332F333222203D2031272D30220000000000002E0FC000000000000284000
  0
ACAD_PROXY_OBJECT
  5
5E
102
{ACAD_REACTORS
330
47
102
}
330
47
100
AcDbZombieObject
 90
      499
 91
      503
 93
      241
310
90C312F3822203D2031272D3022000000000000300FC000000000000284000
  0
ACAD_PROXY_OBJECT
  5
5F
102
{ACAD_REACTORS
330
47
102
}
330
47
100
AcDbZombieObject
 90
      499
 91
      503
 93
      249
310
90D332F313622203D2031272D3022000000000000320FC000000000000284000
  0
ACAD_PROXY_OBJECT
  5
60
102
{ACAD_REACTORS
330
47
102
}
330
47
100
AcDbZombieObject
 90
      499
 91
      503
 93
      241
310
90C312F3422203D2031272D3022000000000000340FC000000000000284000
  0
ACAD_PROXY_OBJECT
  5
61
102
{ACAD_REACTORS
330
47
102
}
330
47
100
AcDbZombieObject
 90
      499
 91
      503
 93
      241
310
90C332F3822203D2031272D3022000000000000360FC000000000000284000
  0
ACAD_PROXY_OBJECT
  5
62
102
{ACAD_REACTORS
330
47
102
}
330
47
100
AcDbZombieObject
 90
      499
 91
      503
 93
      241
310
90C312F3222203D2031272D3022000000000000380FC000000000000284000
  0
ACAD_PROXY_OBJECT
  5
63
102
{ACAD_REACTORS
330
47
102
}
330
47
100
AcDbZombieObject
 90
      499
 91
      503
 93
      241
310
90C332F3422203D2031272D30220000000000003A0FC000000000000284000
  0
ACAD_PROXY_OBJECT
  5
64
102
{ACAD_REACTORS
330
47
102
}
330
47
100
AcDbZombieObject
 90
      499
 91
      503
 93
      161
310
90A3122203D2031272D30224000000000000284000
  0
ACAD_PROXY_OBJECT
  5
65
102
{ACAD_REACTORS
330
47
102
}
330
47
100
AcDbZombieObject
 90
      499
 91
      503
 93
      257
310
90E312D312F3222203D2031272D30220000000000003E0FC000000000000284000
  0
ACAD_PROXY_OBJECT
  5
66
102
{ACAD_REACTORS
330
47
102
}
330
47
100
AcDbZombieObject
 90
      499
 91
      503
 93
      225
310
90A3322203D2031272D302200000000000002100000000000000284000
  0
ACAD_PROXY_OBJECT
  5
67
102
{ACAD_REACTORS
330
47
102
}
330
47
100
AcDbZombieObject
 90
      499
 91
      503
 93
      225
310
90A3622203D2031272D302200000000000006100000000000000284000
  0
ACAD_PROXY_OBJECT
  5
68
102
{ACAD_REACTORS
330
47
102
}
330
47
100
AcDbZombieObject
 90
      499
 91
      503
 93
      249
310
90D31272D3022203D2031272D30220000000000000A100000000000000284000
  0
ACAD_PROXY_OBJECT
  5
2F
102
{ACAD_REACTORS
330
2A
102
}
330
2A
100
AcDbZombieObject
 90
      499
 91
      501
 93
      436
310
42CC9915DA5C99599C985B595049028333333333333E33F0000000000000F90107901411070040501600405405064090741402480A0340
1001
ACAD
1000
AcDbSavedByObjectVersion
1070
     0
  0
ACAD_PROXY_OBJECT
  5
32
102
{ACAD_REACTORS
330
2A
102
}
330
2A
100
AcDbZombieObject
 90
      499
 91
      501
 93
      388
310
4150985CDA58D07406404333333333333E33F0000000000000F90107A41107004050150841D405064090741402480A0350
1001
ACAD
1000
AcDbSavedByObjectVersion
1070
     0
  0
ACAD_PROXY_OBJECT
  5
36
102
{ACAD_REACTORS
330
2A
102
}
330
2A
100
AcDbZombieObject
 90
      499
 91
      501
 93
      428
310
42109C9A59DA1D195B90C409028333333333333E33F0000000000000F9010790141107004050150841D405064090741402480A029950
1001
ACAD
1000
AcDbSavedByObjectVersion
1070
     0
  0
ACAD_PROXY_OBJECT
  5
3A
102
{ACAD_REACTORS
330
2A
102
}
330
2A
100
AcDbZombieObject
 90
      499
 91
      501
 93
      452
310
42D0DBDB1BDC90DA185B99D95104090240C333333333333E33F0000000000000F90108901411070040501508421405064090741402480A0350
1001
ACAD
1000
AcDbSavedByObjectVersion
1070
     0
  0
ACAD_PROXY_OBJECT
  5
34
102
{ACAD_REACTORS
330
2A
102
}
330
2A
100
AcDbZombieObject
 90
      499
 91
      501
 93
      500
310
4290DBDB98D95C1D1D585B10940D028333333333333E33F0000000000000F90107902409070040501000000000018199010841D405064090740C02480A0340
1001
ACAD
1000
AcDbSavedByObjectVersion
1070
     0
  0
ACAD_PROXY_OBJECT
  5
35
102
{ACAD_REACTORS
330
2A
102
}
330
2A
100
AcDbZombieObject
 90
      499
 91
      501
 93
      412
310
40D11A5B50B409028333333333333E33F0000000000000F9010790141107004050150841D405064090741402480A02677FFFFFD0
1001
ACAD
1000
AcDbSavedByObjectVersion
1070
     0
  0
ACAD_PROXY_OBJECT
  5
3D
102
{ACAD_REACTORS
330
2A
102
}
330
2A
100
AcDbZombieObject
 90
      499
 91
      501
 93
      452
310
43115919D950DBDB1BDC93D999916409028333333333333E33F0000000000000F9010790141107004050150841D405064090741402480A0350
1001
ACAD
1000
AcDbSavedByObjectVersion
1070
     0
  0
ACAD_PROXY_OBJECT
  5
39
102
{ACAD_REACTORS
330
2A
102
}
330
2A
100
AcDbZombieObject
 90
      499
 91
      501
 93
      444
310
42D19858D95C185D1D195C9B90F409028333333333333E33F0000000000000F9010790141107004050150841D405064090741402480A0350
1001
ACAD
1000
AcDbSavedByObjectVersion
1070
     0
  0
ACAD_PROXY_OBJECT
  5
2B
102
{ACAD_REACTORS
330
2A
102
}
330
2A
100
AcDbZombieObject
 90
      499
 91
      501
 93
      380
310
41119B185D240901404333333333333E33F0000000000000F9010740A907004050150841D405064090741402480A1B50
1001
ACAD
1000
AcDbSavedByObjectVersion
1070
     0
  0
ACAD_PROXY_OBJECT
  5
2C
102
{ACAD_REACTORS
330
2A
102
}
330
2A
100
AcDbZombieObject
 90
      499
 91
      501
 93
      468
310
43519B185D15DA5D1A115919D95CD0140901404333333333333E33F0000000000000F90107409019070040501600405405064090741402480A1B50
1001
ACAD
1000
AcDbSavedByObjectVersion
1070
     0
  0
ACAD_PROXY_OBJECT
  5
2D
102
{ACAD_REACTORS
330
2A
102
}
330
2A
100
AcDbZombieObject
 90
      499
 91
      501
 93
      404
310
41D1DBDD5C985D5910240902404333333333333E33F0000000000000F9010740A9070040501641D405064090741402480A1B50
1001
ACAD
1000
AcDbSavedByObjectVersion
1070
     0
  0
ACAD_PROXY_OBJECT
  5
2E
102
{ACAD_REACTORS
330
2A
102
}
330
2A
100
AcDbZombieObject
 90
      499
 91
      501
 93
      492
310
4411DBDD5C985D5915DA5D1A115919D95CD0340902404333333333333E33F0000000000000F90107409019070040501600405405064090741402480A1B50
1001
ACAD
1000
AcDbSavedByObjectVersion
1070
     0
  0
ACAD_PROXY_OBJECT
  5
31
102
{ACAD_REACTORS
330
2A
102
}
330
2A
100
AcDbZombieObject
 90
      499
 91
      501
 93
      476
310
41921A5919195B90640502408333333333333E33F0000000000000F901079024090700405020000000000001110200405405064090740C02480A0340
1001
ACAD
1000
AcDbSavedByObjectVersion
1070
     0
  0
ACAD_PROXY_OBJECT
  5
3B
102
{ACAD_REACTORS
330
2A
102
}
330
2A
100
AcDbZombieObject
 90
      499
 91
      501
 93
      428
310
42529A5D1D195C93D999914409028333333333333E33F0000000000000F9010790141107004050150A41D405064090741402480A0350
1001
ACAD
1000
AcDbSavedByObjectVersion
1070
     0
  0
ACAD_PROXY_OBJECT
  5
38
102
{ACAD_REACTORS
330
2A
102
}
330
2A
100
AcDbZombieObject
 90
      499
 91
      501
 93
      444
310
42D31A5B995C185D1D195C9B90E409028333333333333E33F0000000000000F9010790141107004050750841D405064090741402483A0350
1001
ACAD
1000
AcDbSavedByObjectVersion
1070
     0
  0
ACAD_PROXY_OBJECT
  5
3C
102
{ACAD_REACTORS
330
2A
102
}
330
2A
100
AcDbZombieObject
 90
      499
 91
      501
 93
      444
310
42D3DD995C9A185B99D3D999915409028333333333333E33F0000000000000F9010790141107004050150941D405064090741402480A0350
1001
ACAD
1000
AcDbSavedByObjectVersion
1070
     0
  0
ACAD_PROXY_OBJECT
  5
33
102
{ACAD_REACTORS
330
2A
102
}
330
2A
100
AcDbZombieObject
 90
      499
 91
      501
 93
      428
310
425499585B1A5CDD1A58D08409038333333333333E33F0000000000000F9010740A907004050150800405405064090740C02480A1B40
1001
ACAD
1000
AcDbSavedByObjectVersion
1070
     0
  0
ACAD_PROXY_OBJECT
  5
42
102
{ACAD_REACTORS
330
2A
102
}
330
2A
100
AcDbZombieObject
 90
      499
 91
      501
 93
      420
310
4194DA1859195911B40902404333333333333E33F0000000000000F9010740A41107004050150800405405064090840C02480A0B40
1001
ACAD
1000
AcDbSavedByObjectVersion
1070
     0
  0
ACAD_PROXY_OBJECT
  5
41
102
{ACAD_REACTORS
330
2A
102
}
330
2A
100
AcDbZombieObject
 90
      499
 91
      501
 93
      516
310
4454DA18591959081DDA5D1A08195919D95CD1A40902404333333333333E33F0000000000000F901074090142907004050250800405405064090740C02480A0B40
1001
ACAD
1000
AcDbSavedByObjectVersion
1070
     0
  0
ACAD_PROXY_OBJECT
  5
3E
102
{ACAD_REACTORS
330
2A
102
}
330
2A
100
AcDbZombieObject
 90
      499
 91
      501
 93
      532
310
4394DA1859195CC81BD98811DC985E5174090240C333333333333E33F0000000000000F901079024090741D01000000000000111010841D405064090740C02480A0340
1001
ACAD
1000
AcDbSavedByObjectVersion
1070
     0
  0
ACAD_PROXY_OBJECT
  5
3F
102
{ACAD_REACTORS
330
2A
102
}
330
2A
100
AcDbZombieObject
 90
      499
 91
      501
 93
      476
310
41D4DAD95D18DA1E51840502408333333333333E33F0000000000000F901079024090741D01000000000000111010B41D405064090741802480A0340
1001
ACAD
1000
AcDbSavedByObjectVersion
1070
     0
  0
ACAD_PROXY_OBJECT
  5
37
102
{ACAD_REACTORS
330
2A
102
}
330
2A
100
AcDbZombieObject
 90
      499
 91
      501
 93
      412
310
41D51A1A58DAD95B90D409028333333333333E33F0000000000000F9010790141107004050150C41D405064090741402480A0350
1001
ACAD
1000
AcDbSavedByObjectVersion
1070
     0
  0
ACAD_PROXY_OBJECT
  5
30
102
{ACAD_REACTORS
330
2A
102
}
330
2A
100
AcDbZombieObject
 90
      499
 91
      501
 93
      420
310
4255DA5C99599C985B595059028333333333333E33F0000000000000F90107901411070040501600405405064090740C02480A0340
1001
ACAD
1000
AcDbSavedByObjectVersion
1070
     0
  0
ACAD_PROXY_OBJECT
  5
40
102
{ACAD_REACTORS
330
2A
102
}
330
2A
100
AcDbZombieObject
 90
      499
 91
      501
 93
      404
310
41560B54985E51940902404000000000000E03F0000000000000F9010740501907004050150841D405064090740C02480A1B40
1001
ACAD
1000
AcDbSavedByObjectVersion
1070
     0
  0
DICTIONARYVAR
  5
293
102
{ACAD_REACTORS
330
6C
102
}
330
6C
100
DictionaryVariables
280
     0
  1
1:1
  0
DICTIONARYVAR
  5
28B
102
{ACAD_REACTORS
330
6C
102
}
330
6C
100
DictionaryVariables
280
     0
  1
Standard
  0
DICTIONARYVAR
  5
291
102
{ACAD_REACTORS
330
6C
102
}
330
6C
100
DictionaryVariables
280
     0
  1
2
  0
DICTIONARYVAR
  5
292
102
{ACAD_REACTORS
330
6C
102
}
330
6C
100
DictionaryVariables
280
     0
  1
1
  0
DICTIONARYVAR
  5
294
102
{ACAD_REACTORS
330
6C
102
}
330
6C
100
DictionaryVariables
280
     0
  1
1
  0
DICTIONARYVAR
  5
6D
102
{ACAD_REACTORS
330
6C
102
}
330
6C
100
DictionaryVariables
280
     0
  1
0
  0
DICTIONARYVAR
  5
28E
102
{ACAD_REACTORS
330
6C
102
}
330
6C
100
DictionaryVariables
280
     0
  1
80.000000
  0
DICTIONARYVAR
  5
28D
102
{ACAD_REACTORS
330
6C
102
}
330
6C
100
DictionaryVariables
280
     0
  1
5.000000
  0
XRECORD
  5
288
102
{ACAD_REACTORS
330
287
102
}
330
287
100
AcDbXrecord
 70
     4
  0
XRECORD
  5
28A
102
{ACAD_REACTORS
330
287
102
}
330
287
100
AcDbXrecord
 90
        0
  0
XRECORD
  5
289
102
{ACAD_REACTORS
330
287
102
}
330
287
100
AcDbXrecord
 90
        1
  0
DICTIONARY
  5
297
330
45
100
AcDbDictionary
  3
ACAD_XREC_ROUNDTRIP
360
298
1001
ACAD
1000
TREAT_AS_HARD
1070
     1
  0
DICTIONARY
  5
295
330
44
100
AcDbDictionary
  3
ACAD_XREC_ROUNDTRIP
360
296
1001
ACAD
1000
TREAT_AS_HARD
1070
     1
  0
DICTIONARY
  5
299
330
46
100
AcDbDictionary
  3
ACAD_XREC_ROUNDTRIP
360
29A
1001
ACAD
1000
TREAT_AS_HARD
1070
     1
  0
XRECORD
  5
298
102
{ACAD_REACTORS
330
297
102
}
330
297
100
AcDbXrecord
102
MATERIAL
148
0.0
149
0.0
149
0.0
 93
        0
 94
      127
282
     0
 72
     1
 77
     1
171
     1
175
     1
179
     1
273
     0
  0
XRECORD
  5
296
102
{ACAD_REACTORS
330
295
102
}
330
295
100
AcDbXrecord
102
MATERIAL
148
0.0
149
0.0
149
0.0
 93
        0
 94
      127
282
     0
 72
     1
 77
     1
171
     1
175
     1
179
     1
273
     0
  0
XRECORD
  5
29A
102
{ACAD_REACTORS
330
299
102
}
330
299
100
AcDbXrecord
102
MATERIAL
148
0.0
149
0.0
149
0.0
 93
        0
 94
      127
282
     0
 72
     1
 77
     1
171
     1
175
     1
179
     1
273
     0
  0
ENDSEC
  0
EOF
